<svg width="527" height="331" viewBox="0 0 527 331" fill="none" xmlns="http://www.w3.org/2000/svg">
<path d="M17.726 126.036C19.0349 125.248 20.4434 124.638 21.9143 124.223L22.7732 120.099L29.7663 119.97L30.8 124.072C32.2818 124.434 33.7083 124.992 35.0415 125.732L38.576 123.458L43.608 128.31L41.4189 131.912C42.2083 133.215 42.8193 134.617 43.2356 136.082L47.3706 136.946L47.4998 143.922L43.3876 144.923C43.0259 146.404 42.466 147.83 41.7229 149.162L44.0033 152.687L39.1613 157.669L35.5508 155.485C34.243 156.27 32.8374 156.879 31.3701 157.297L30.5036 161.422L23.5105 161.543L22.5072 157.449C21.0222 157.085 19.5931 156.524 18.2581 155.781L14.716 158.071L9.684 153.226L11.8731 149.624C11.0866 148.317 10.4759 146.912 10.0565 145.446L5.92142 144.589L5.7998 137.614L9.90443 136.605C10.2708 135.128 10.8305 133.706 11.5691 132.374L9.28874 128.849L14.1459 123.829L17.7564 126.013L17.726 126.036ZM21.4582 135.324C20.4319 136.39 19.745 137.736 19.4843 139.191C19.2236 140.646 19.4007 142.145 19.9933 143.5C20.5859 144.855 21.5674 146.004 22.8141 146.803C24.0607 147.602 25.5167 148.015 26.9983 147.99C28.4799 147.964 29.9208 147.502 31.1392 146.661C32.3577 145.82 33.2991 144.637 33.8448 143.263C34.3905 141.889 34.516 140.384 34.2054 138.939C33.8949 137.494 33.1622 136.172 32.0998 135.142C31.3907 134.454 30.5521 133.913 29.6324 133.549C28.7128 133.186 27.7301 133.008 26.7411 133.025C25.752 133.042 24.7761 133.253 23.8695 133.648C22.9628 134.043 22.1433 134.612 21.4582 135.324Z" fill="#EBEBEB"/>
<path d="M28.0258 25.0624C29.3347 24.2748 30.7432 23.6653 32.2141 23.2502L33.0806 19.1179L40.0737 18.9966L41.077 23.1062C42.5581 23.4743 43.9841 24.0352 45.3185 24.7743L48.853 22.4617L53.885 27.3143L51.6959 30.9159C52.4853 32.2189 53.0963 33.6214 53.5126 35.0862L57.6552 35.9506L57.7768 42.9263L53.6646 43.9271C53.3016 45.3956 52.7416 46.8085 51.9999 48.1277L54.2803 51.661L49.4155 56.6805L45.805 54.4892C44.5004 55.2799 43.0939 55.8895 41.6243 56.3014L40.7578 60.4337L33.7647 60.5551L32.7994 56.4682C31.3155 56.1014 29.8868 55.5405 28.5503 54.8001L25.0158 57.0748L19.9838 52.2297L22.1805 48.6206C21.3887 47.3179 20.7751 45.9153 20.3563 44.4503L16.2212 43.5935L16.0996 36.6178L20.2042 35.6094C20.5744 34.1541 21.1368 32.7543 21.8765 31.4467L19.5961 27.9209L24.4153 22.8787L28.0258 25.0624ZM31.758 34.3583C30.7325 35.4252 30.0466 36.7712 29.787 38.2264C29.5273 39.6817 29.7055 41.1811 30.2991 42.5354C30.8926 43.8898 31.875 45.0385 33.1222 45.8366C34.3694 46.6348 35.8256 47.0466 37.3072 47.0202C38.7888 46.9939 40.2293 46.5304 41.4472 45.6883C42.665 44.8463 43.6056 43.6633 44.1503 42.2887C44.695 40.9141 44.8195 39.4093 44.5079 37.9642C44.1963 36.5191 43.4627 35.1984 42.3996 34.1687C41.6905 33.4804 40.8517 32.939 39.9316 32.5757C39.0116 32.2124 38.0286 32.0344 37.0392 32.052C36.0499 32.0697 35.0739 32.2825 34.1674 32.6784C33.261 33.0742 32.4421 33.6451 31.758 34.3583Z" fill="#EBEBEB"/>
<path d="M180.649 64.2249C182.226 63.2723 183.923 62.5353 185.697 62.0336L186.738 57.0445L195.183 56.9004L196.399 61.844C198.189 62.2827 199.912 62.9584 201.522 63.8533L205.794 61.0631L211.875 66.9166L209.23 71.2688C210.181 72.843 210.92 74.5359 211.426 76.3034L216.42 77.3422L216.572 85.7661L211.609 86.9793C211.173 88.7659 210.495 90.4851 209.595 92.0897L212.392 96.351L206.531 102.417L202.168 99.7782C200.587 100.728 198.888 101.464 197.113 101.969L196.072 106.951L187.627 107.103L186.411 102.151C184.621 101.714 182.898 101.038 181.288 100.142L177.024 102.932L170.943 97.0789L173.588 92.7267C172.632 91.1548 171.893 89.4613 171.391 87.692L166.39 86.6533L166.245 78.2293L171.201 77.0162C171.647 75.2326 172.324 73.5146 173.215 71.9057L170.418 67.6521L176.286 61.5862L180.649 64.2325V64.2249ZM185.149 75.4239C183.905 76.7097 183.07 78.3347 182.751 80.0935C182.432 81.8523 182.643 83.6659 183.358 85.305C184.072 86.9442 185.257 88.3353 186.764 89.3025C188.271 90.2696 190.031 90.7695 191.823 90.7387C193.614 90.708 195.357 90.1481 196.829 89.1298C198.302 88.1115 199.439 86.6806 200.096 85.0179C200.753 83.3552 200.902 81.5354 200.522 79.7885C200.143 78.0417 199.253 76.4463 197.965 75.204C196.236 73.5392 193.914 72.6271 191.511 72.6684C189.108 72.7096 186.82 73.7007 185.149 75.4239Z" fill="#EBEBEB"/>
<path d="M65.6437 9.45807C66.3043 9.05517 67.0181 8.74637 67.7644 8.54062L68.1977 6.42516L71.7322 6.3645L72.2415 8.43447C72.9901 8.61937 73.7109 8.90238 74.385 9.2761L76.1713 8.10843L78.6873 10.5803L77.5775 12.4076C77.9783 13.0655 78.2877 13.7746 78.4972 14.5155L80.5876 14.9476L80.6484 18.4734L78.5733 18.9814C78.3905 19.729 78.1067 20.4483 77.7295 21.1196L78.9001 22.909L76.4449 25.4415L74.6206 24.3345C73.9621 24.7362 73.251 25.0449 72.5075 25.252L72.0743 27.3447L68.5321 27.4053L68.0456 25.3354C67.297 25.1505 66.5762 24.8675 65.9021 24.4937L64.1158 25.6614L61.5694 23.2123L62.7248 21.385C62.317 20.7393 61.995 20.0435 61.7671 19.315L59.6843 18.8449L59.6235 15.3192L61.6987 14.8112C61.8814 14.0636 62.1652 13.3442 62.5424 12.673L61.3718 10.8835L63.827 8.35106L65.6513 9.45807H65.6437ZM67.5288 14.1515C67.0053 14.6902 66.6538 15.3718 66.5188 16.1099C66.3838 16.848 66.4715 17.6094 66.7706 18.2978C67.0697 18.9862 67.5668 19.5706 68.1991 19.977C68.8313 20.3834 69.5703 20.5935 70.3223 20.5808C71.0743 20.568 71.8057 20.333 72.4237 19.9054C73.0417 19.4778 73.5187 18.8769 73.7942 18.1787C74.0697 17.4806 74.1313 16.7166 73.9713 15.9835C73.8112 15.2504 73.4367 14.5812 72.8952 14.0605C72.1708 13.364 71.1991 12.9825 70.1931 12.9996C69.1871 13.0166 68.229 13.4309 67.5288 14.1515Z" fill="#EBEBEB"/>
<path d="M517.67 330.795C517.67 330.909 401.775 331 258.85 331C115.925 331 0 330.947 0 330.795C0 330.644 115.872 330.598 258.85 330.598C401.828 330.598 517.67 330.689 517.67 330.795Z" fill="#263238"/>
<path d="M488.146 155.319H460.333C456.19 155.319 452.831 158.669 452.831 162.802V190.546C452.831 194.679 456.19 198.03 460.333 198.03H488.146C492.29 198.03 495.648 194.679 495.648 190.546V162.802C495.648 158.669 492.29 155.319 488.146 155.319Z" fill="#263238"/>
<path d="M481.868 155.319H454.055C449.912 155.319 446.553 158.669 446.553 162.802V190.546C446.553 194.679 449.912 198.03 454.055 198.03H481.868C486.011 198.03 489.37 194.679 489.37 190.546V162.802C489.37 158.669 486.011 155.319 481.868 155.319Z" fill="#455A64"/>
<path d="M454.861 176.42L458.935 172.356L466.787 179.324L479.907 166.184L483.692 170.248L466.209 187.157L454.861 176.42Z" fill="white"/>
<path d="M468.292 284.536C469.33 285.031 470.256 285.73 471.017 286.589C471.779 287.449 472.359 288.452 472.724 289.54C473.434 291.726 473.635 294.044 473.309 296.319C472.808 300.716 470.307 305.16 467.608 308.678C463.891 305.44 463.048 299.807 462.782 296.918C462.386 292.368 464.439 283.861 468.292 284.536Z" fill="#0081DA"/>
<path d="M471.918 315.934C471.667 314.677 471.753 313.375 472.166 312.161C472.58 310.947 473.307 309.863 474.275 309.019C475.259 308.195 476.397 307.574 477.624 307.193C478.85 306.811 480.141 306.677 481.42 306.798C482.019 306.784 482.614 306.903 483.162 307.146C483.71 307.388 484.197 307.748 484.589 308.2C484.878 308.674 485.035 309.217 485.043 309.771C485.051 310.326 484.91 310.873 484.635 311.355C484.07 312.303 483.265 313.087 482.302 313.629C479.079 315.639 475.597 317.003 471.956 315.904" fill="#0081DA"/>
<path d="M467.16 329.431C467.177 329.127 467.22 328.825 467.289 328.528C467.41 327.891 467.563 327.073 467.737 326.087C468.155 323.365 469.009 320.728 470.269 318.277C471.576 315.831 473.515 313.779 475.886 312.333C476.603 311.905 477.369 311.564 478.166 311.317C478.447 311.226 478.675 311.188 478.82 311.15C478.898 311.138 478.977 311.138 479.055 311.15C477.998 311.515 476.979 311.985 476.015 312.552C473.728 314.035 471.854 316.069 470.565 318.467C469.326 320.89 468.455 323.484 467.981 326.163C467.753 327.186 467.57 328.013 467.433 328.581C467.368 328.872 467.276 329.156 467.16 329.431Z" fill="#263238"/>
<path d="M467.297 291.148C467.333 291.276 467.348 291.409 467.342 291.542C467.342 291.83 467.388 292.209 467.411 292.672C467.464 293.657 467.525 295.083 467.578 296.842C467.692 300.368 467.783 305.243 467.761 310.619C467.738 315.995 467.609 320.878 467.464 324.396C467.388 326.163 467.32 327.588 467.259 328.566C467.259 329.036 467.198 329.408 467.183 329.704C467.183 329.837 467.165 329.969 467.13 330.098C467.118 329.967 467.118 329.835 467.13 329.704C467.13 329.408 467.13 329.029 467.13 328.566C467.13 327.543 467.19 326.125 467.236 324.388C467.32 320.87 467.418 316.002 467.441 310.619C467.464 305.236 467.441 300.375 467.35 296.85C467.35 295.121 467.304 293.703 467.289 292.679C467.289 292.209 467.289 291.838 467.289 291.542C467.28 291.411 467.283 291.279 467.297 291.148Z" fill="#263238"/>
<path d="M465.495 318.611C465.048 315.946 463.969 313.425 462.35 311.259C460.731 309.092 458.617 307.342 456.184 306.153C454.945 305.562 453.326 305.167 452.307 306.092C451.289 307.017 451.547 308.67 452.011 309.952C453.102 312.608 454.957 314.882 457.342 316.487C459.726 318.093 462.534 318.959 465.412 318.975" fill="#0081DA"/>
<path d="M456.784 310.323C457.048 310.412 457.303 310.527 457.544 310.664C457.85 310.806 458.147 310.965 458.434 311.142C458.823 311.358 459.201 311.593 459.566 311.847C460.018 312.149 460.451 312.475 460.866 312.825C461.349 313.212 461.808 313.628 462.242 314.069C463.241 315.089 464.121 316.218 464.864 317.435C465.589 318.664 466.171 319.972 466.597 321.333C466.775 321.926 466.92 322.528 467.031 323.137C467.14 323.668 467.214 324.205 467.251 324.745C467.32 325.238 467.297 325.685 467.32 326.079C467.341 326.413 467.341 326.747 467.32 327.08C467.313 327.368 467.28 327.655 467.221 327.937C467.145 327.937 467.274 326.709 467.061 324.767C466.993 324.282 466.932 323.751 466.803 323.19C466.681 322.591 466.526 321.999 466.339 321.416C465.907 320.094 465.331 318.822 464.621 317.625C463.89 316.429 463.031 315.315 462.06 314.304C461.637 313.86 461.19 313.44 460.722 313.045C460.322 312.694 459.903 312.365 459.468 312.06C457.871 310.892 456.754 310.384 456.784 310.323Z" fill="#263238"/>
<path d="M129.387 140.76H49.9243V330.848H129.387V140.76Z" fill="#E0E0E0"/>
<path d="M89.6557 140.76H26.832V330.848H89.6557V140.76Z" fill="#F5F5F5"/>
<path d="M89.7465 330.704C89.64 330.704 89.5488 288.137 89.5488 235.63C89.5488 183.123 89.64 140.548 89.7465 140.548C89.8529 140.548 89.9441 183.115 89.9441 235.63C89.9441 288.145 89.8605 330.704 89.7465 330.704Z" fill="#263238"/>
<path d="M120.151 162.597H101.118V164.554H120.151V162.597Z" fill="#263238"/>
<path d="M120.151 168.193H101.118V170.149H120.151V168.193Z" fill="#263238"/>
<path d="M120.151 173.796H101.118V175.753H120.151V173.796Z" fill="#263238"/>
<path d="M83.5822 148.843H33.3232V324.813H83.5822V148.843Z" fill="#E0E0E0"/>
<path d="M78.5728 155.326H36.9336V161.619H78.5728V155.326Z" fill="#EBEBEB"/>
<path d="M43.2426 155.326H36.9336V161.619H43.2426V155.326Z" fill="#0081DA"/>
<path d="M79.8653 155.326H66.1528V161.619H79.8653V155.326Z" fill="#F5F5F5"/>
<path d="M78.5728 166.525H36.9336V172.818H78.5728V166.525Z" fill="#EBEBEB"/>
<path d="M43.2426 166.525H36.9336V172.818H43.2426V166.525Z" fill="white"/>
<path d="M79.8653 166.525H66.1528V172.818H79.8653V166.525Z" fill="#F5F5F5"/>
<path d="M78.5728 177.732H36.9336V184.025H78.5728V177.732Z" fill="#EBEBEB"/>
<path d="M43.2426 177.732H36.9336V184.025H43.2426V177.732Z" fill="#0081DA"/>
<path d="M79.8653 177.732H66.1528V184.025H79.8653V177.732Z" fill="#F5F5F5"/>
<path d="M78.5728 188.938H36.9336V195.232H78.5728V188.938Z" fill="#EBEBEB"/>
<path d="M43.2426 188.938H36.9336V195.232H43.2426V188.938Z" fill="white"/>
<path d="M79.8653 188.938H66.1528V195.232H79.8653V188.938Z" fill="#F5F5F5"/>
<path d="M78.5728 200.137H36.9336V206.43H78.5728V200.137Z" fill="#EBEBEB"/>
<path d="M43.2426 200.137H36.9336V206.43H43.2426V200.137Z" fill="#0081DA"/>
<path d="M79.8653 200.137H66.1528V206.43H79.8653V200.137Z" fill="#F5F5F5"/>
<path d="M78.5728 211.344H36.9336V217.637H78.5728V211.344Z" fill="#EBEBEB"/>
<path d="M43.2426 211.344H36.9336V217.637H43.2426V211.344Z" fill="#0081DA"/>
<path d="M79.8653 211.344H66.1528V217.637H79.8653V211.344Z" fill="#F5F5F5"/>
<path d="M78.5728 222.551H36.9336V228.844H78.5728V222.551Z" fill="#EBEBEB"/>
<path d="M43.2426 222.551H36.9336V228.844H43.2426V222.551Z" fill="white"/>
<path d="M79.8653 222.551H66.1528V228.844H79.8653V222.551Z" fill="#F5F5F5"/>
<path d="M78.5728 233.75H36.9336V240.043H78.5728V233.75Z" fill="#EBEBEB"/>
<path d="M43.2426 233.75H36.9336V240.043H43.2426V233.75Z" fill="white"/>
<path d="M79.8653 233.75H66.1528V240.043H79.8653V233.75Z" fill="#F5F5F5"/>
<path d="M78.5728 244.956H36.9336V251.249H78.5728V244.956Z" fill="#EBEBEB"/>
<path d="M43.2426 244.956H36.9336V251.249H43.2426V244.956Z" fill="white"/>
<path d="M79.8653 244.956H66.1528V251.249H79.8653V244.956Z" fill="#F5F5F5"/>
<path d="M78.5728 256.163H36.9336V262.456H78.5728V256.163Z" fill="#EBEBEB"/>
<path d="M43.2426 256.163H36.9336V262.456H43.2426V256.163Z" fill="#0081DA"/>
<path d="M79.8653 256.163H66.1528V262.456H79.8653V256.163Z" fill="#F5F5F5"/>
<path d="M78.5728 267.369H36.9336V273.663H78.5728V267.369Z" fill="#EBEBEB"/>
<path d="M43.2426 267.369H36.9336V273.663H43.2426V267.369Z" fill="white"/>
<path d="M79.8653 267.369H66.1528V273.663H79.8653V267.369Z" fill="#F5F5F5"/>
<path d="M78.5728 278.568H36.9336V284.862H78.5728V278.568Z" fill="#EBEBEB"/>
<path d="M43.2426 278.568H36.9336V284.862H43.2426V278.568Z" fill="#0081DA"/>
<path d="M79.8653 278.568H66.1528V284.862H79.8653V278.568Z" fill="#F5F5F5"/>
<path d="M78.5728 289.775H36.9336V296.068H78.5728V289.775Z" fill="#EBEBEB"/>
<path d="M43.2426 289.775H36.9336V296.068H43.2426V289.775Z" fill="white"/>
<path d="M79.8653 289.775H66.1528V296.068H79.8653V289.775Z" fill="#F5F5F5"/>
<path d="M78.5728 300.982H36.9336V307.275H78.5728V300.982Z" fill="#EBEBEB"/>
<path d="M43.2426 300.982H36.9336V307.275H43.2426V300.982Z" fill="#0081DA"/>
<path d="M79.8653 300.982H66.1528V307.275H79.8653V300.982Z" fill="#F5F5F5"/>
<path d="M78.5728 312.181H36.9336V318.474H78.5728V312.181Z" fill="#EBEBEB"/>
<path d="M43.2426 312.181H36.9336V318.474H43.2426V312.181Z" fill="white"/>
<path d="M79.8653 312.181H66.1528V318.474H79.8653V312.181Z" fill="#F5F5F5"/>
<path d="M129.387 330.848C129.387 329.157 129.311 251.917 129.204 140.76L129.387 140.942H26.847L27.0447 140.745C27.0447 213.717 27.0067 280.441 26.9991 330.833L26.847 330.681L129.402 330.833L26.847 330.977H26.695V330.825C26.695 280.434 26.695 213.71 26.6494 140.738V140.541H26.8622H129.402H129.584V140.722C129.584 196.346 129.524 243.887 129.501 277.53C129.425 311.089 129.387 330.007 129.387 330.848Z" fill="#263238"/>
<path d="M398.635 87.1841H125.115C122.851 87.1841 120.68 88.0812 119.079 89.678C117.478 91.2749 116.579 93.4407 116.579 95.699V288.418C116.579 290.676 117.478 292.842 119.079 294.439C120.68 296.036 122.851 296.933 125.115 296.933H230.094L225.002 330.598H301.112L296.84 296.933H398.635C400.899 296.933 403.07 296.036 404.671 294.439C406.272 292.842 407.171 290.676 407.171 288.418V95.699C407.171 94.5808 406.95 93.4735 406.521 92.4405C406.092 91.4074 405.464 90.4687 404.671 89.678C403.878 88.8874 402.937 88.2602 401.902 87.8322C400.866 87.4043 399.756 87.1841 398.635 87.1841Z" fill="#455A64"/>
<path d="M265.523 276.665C269.248 281.973 263.425 287.781 258.105 284.065C257.927 283.941 257.773 283.787 257.649 283.61C253.939 278.303 259.754 272.502 265.067 276.21C265.245 276.334 265.399 276.488 265.523 276.665Z" fill="#263238"/>
<path d="M131.599 94.5388H392.19C394.145 94.5388 396.02 95.3137 397.403 96.693C398.786 98.0723 399.563 99.943 399.563 101.894V261.675H124.226V101.894C124.226 99.943 125.002 98.0723 126.385 96.693C127.768 95.3137 129.643 94.5388 131.599 94.5388Z" fill="#263238"/>
<path d="M325.086 296.933C325.086 297.031 302.153 297.107 273.877 297.107C245.601 297.107 222.668 297.031 222.668 296.933C222.668 296.834 245.593 296.766 273.877 296.766C302.161 296.766 325.086 296.827 325.086 296.933Z" fill="#263238"/>
<path d="M171.946 107.74H151.878V111.963H171.946V107.74Z" fill="#455A64"/>
<path d="M161.912 126.665H151.878V130.888H161.912V126.665Z" fill="#0081DA"/>
<path d="M173.565 136.181H159.434V140.404H173.565V136.181Z" fill="#455A64"/>
<path d="M184.039 136.181H175.807V140.404H184.039V136.181Z" fill="#455A64"/>
<path d="M257.862 136.181H240.926V140.404H257.862V136.181Z" fill="#455A64"/>
<path d="M307.345 145.454H278.742V149.677H307.345V145.454Z" fill="#455A64"/>
<path d="M351.47 136.181H337.734V140.404H351.47V136.181Z" fill="#455A64"/>
<path d="M383.304 136.181H355.681V140.404H383.304V136.181Z" fill="#455A64"/>
<path d="M173.565 145.454H159.434V149.677H173.565V145.454Z" fill="#455A64"/>
<path d="M164.877 154.704H150.746V158.927H164.877V154.704Z" fill="#0081DA"/>
<path d="M164.884 163.962H158.279V168.185H164.884V163.962Z" fill="#455A64"/>
<path d="M189.109 183.449H182.511V187.672H189.109V183.449Z" fill="#455A64"/>
<path d="M286.221 218.661H273.322V222.884H286.221V218.661Z" fill="#455A64"/>
<path d="M358.281 218.661H326.683V222.884H358.281V218.661Z" fill="#455A64"/>
<path d="M237.657 209.418H224.758V213.641H237.657V209.418Z" fill="#E0E0E0"/>
<path d="M190.926 201.487H178.026V205.71H190.926V201.487Z" fill="#455A64"/>
<path d="M270.647 218.661H250.306V222.884H270.647V218.661Z" fill="#455A64"/>
<path d="M168.989 173.379H158.279V177.603H168.989V173.379Z" fill="#455A64"/>
<path d="M178.148 183.608H158.279V187.831H178.148V183.608Z" fill="#455A64"/>
<path d="M187.353 191.433H158.279V195.656H187.353V191.433Z" fill="#455A64"/>
<path d="M240.029 191.433H210.955V195.656H240.029V191.433Z" fill="#455A64"/>
<path d="M218.594 209.418H177.768V213.641H218.594V209.418Z" fill="#455A64"/>
<path d="M246.817 218.661H177.768V222.884H246.817V218.661Z" fill="#455A64"/>
<path d="M225.929 227.911H156.88V232.134H225.929V227.911Z" fill="#455A64"/>
<path d="M207.869 191.433H190.424V195.656H207.869V191.433Z" fill="#455A64"/>
<path d="M185.483 163.962H167.483V168.185H185.483V163.962Z" fill="#455A64"/>
<path d="M189.451 173.387H171.452V177.61H189.451V173.387Z" fill="#455A64"/>
<path d="M259.184 173.387H211.525V177.61H259.184V173.387Z" fill="#455A64"/>
<path d="M315.516 173.387H260.476V177.61H315.516V173.387Z" fill="#455A64"/>
<path d="M207.306 173.387H192.408V177.61H207.306V173.387Z" fill="#455A64"/>
<path d="M211.54 163.962H187.946V168.185H211.54V163.962Z" fill="#455A64"/>
<path d="M227.282 163.962H214.147V168.185H227.282V163.962Z" fill="#E0E0E0"/>
<path d="M190.538 145.454H175.807V149.677H190.538V145.454Z" fill="#455A64"/>
<path d="M273.284 145.454H200.549V149.677H273.284V145.454Z" fill="#455A64"/>
<path d="M354.928 173.387H320.541V177.61H354.928V173.387Z" fill="#455A64"/>
<path d="M323.969 218.661H289.574V222.884H323.969V218.661Z" fill="#455A64"/>
<path d="M332.383 136.181H260.735V140.404H332.383V136.181Z" fill="#455A64"/>
<path d="M236.472 136.181H186.616V140.404H236.472V136.181Z" fill="#455A64"/>
<path d="M185.445 116.702H151.878V120.925H185.445V116.702Z" fill="#455A64"/>
<path d="M234.762 116.702H188.797V120.925H234.762V116.702Z" fill="#455A64"/>
<path d="M189.862 107.74H175.085V111.963H189.862V107.74Z" fill="#E0E0E0"/>
<path d="M144.551 107.74H140.446V111.963H144.551V107.74Z" fill="#455A64"/>
<path d="M144.551 116.99H140.446V121.213H144.551V116.99Z" fill="#455A64"/>
<path d="M144.551 126.233H140.446V130.456H144.551V126.233Z" fill="#455A64"/>
<path d="M144.551 135.476H140.446V139.699H144.551V135.476Z" fill="#455A64"/>
<path d="M144.551 144.718H140.446V148.942H144.551V144.718Z" fill="#455A64"/>
<path d="M144.551 153.961H140.446V158.185H144.551V153.961Z" fill="#455A64"/>
<path d="M144.551 163.204H140.446V167.427H144.551V163.204Z" fill="#455A64"/>
<path d="M144.551 172.447H140.446V176.67H144.551V172.447Z" fill="#455A64"/>
<path d="M144.551 181.689H140.446V185.913H144.551V181.689Z" fill="#455A64"/>
<path d="M187.49 247.875H180.892V252.099H187.49V247.875Z" fill="#E0E0E0"/>
<path d="M176.879 247.875H157.009V252.099H176.879V247.875Z" fill="#0081DA"/>
<path d="M144.551 247.405H140.446V251.629H144.551V247.405Z" fill="#455A64"/>
<path d="M144.551 190.932H140.446V195.156H144.551V190.932Z" fill="#455A64"/>
<path d="M144.551 200.175H140.446V204.398H144.551V200.175Z" fill="#455A64"/>
<path d="M144.551 209.418H140.446V213.641H144.551V209.418Z" fill="#455A64"/>
<path d="M144.551 218.661H140.446V222.884H144.551V218.661Z" fill="#455A64"/>
<path d="M144.551 227.911H140.446V232.134H144.551V227.911Z" fill="#455A64"/>
<path d="M177.008 237.632H156.88V241.855H177.008V237.632Z" fill="#455A64"/>
<path d="M226.431 237.632H180.892V241.855H226.431V237.632Z" fill="#455A64"/>
<path d="M144.551 237.632H140.446V241.855H144.551V237.632Z" fill="#455A64"/>
<path d="M255.148 116.671H240.371V120.895H255.148V116.671Z" fill="#E0E0E0"/>
<g opacity="0.3">
<path d="M272.73 190.637H262.635V272.434H382.909L379.777 192.623L272.73 190.637Z" fill="black"/>
</g>
<path d="M390.73 178.543H270.381V264.708H390.73V178.543Z" fill="#E0E0E0"/>
<path d="M391.095 265.087H270V178.164H391.095V265.087ZM270.745 264.329H390.335V178.922H270.761L270.745 264.329Z" fill="#263238"/>
<path d="M312.688 187.748H293.229V191.842H312.688V187.748Z" fill="#455A64"/>
<path d="M302.959 206.097H293.229V210.191H302.959V206.097Z" fill="#0081DA"/>
<path d="M314.255 215.324H300.55V219.419H314.255V215.324Z" fill="#455A64"/>
<path d="M324.417 215.324H316.436V219.419H324.417V215.324Z" fill="#455A64"/>
<path d="M314.255 224.325H300.55V228.419H314.255V224.325Z" fill="#455A64"/>
<path d="M305.84 233.294H292.135V237.389H305.84V233.294Z" fill="#0081DA"/>
<path d="M305.832 242.264H299.432V246.359H305.832V242.264Z" fill="#455A64"/>
<path d="M309.823 251.401H299.432V255.496H309.823V251.401Z" fill="#455A64"/>
<path d="M325.816 242.264H308.364V246.359H325.816V242.264Z" fill="#455A64"/>
<path d="M329.662 251.409H312.21V255.503H329.662V251.409Z" fill="#455A64"/>
<path d="M371.719 251.409H351.075V255.503H371.719V251.409Z" fill="#455A64"/>
<path d="M346.977 251.409H332.535V255.503H346.977V251.409Z" fill="#455A64"/>
<path d="M351.09 242.264H328.21V246.359H351.09V242.264Z" fill="#455A64"/>
<path d="M366.353 242.264H353.613V246.359H366.353V242.264Z" fill="white"/>
<path d="M330.719 224.325H316.436V228.419H330.719V224.325Z" fill="#455A64"/>
<path d="M375.262 215.324H326.911V219.419H375.262V215.324Z" fill="#455A64"/>
<path d="M325.785 196.437H293.229V200.531H325.785V196.437Z" fill="#455A64"/>
<path d="M373.604 196.437H329.031V200.531H373.604V196.437Z" fill="#455A64"/>
<path d="M330.057 187.748H315.729V191.842H330.057V187.748Z" fill="white"/>
<path d="M286.115 187.748H282.14V191.842H286.115V187.748Z" fill="#455A64"/>
<path d="M286.115 196.71H282.14V200.804H286.115V196.71Z" fill="#455A64"/>
<path d="M286.115 205.68H282.14V209.774H286.115V205.68Z" fill="#455A64"/>
<path d="M286.115 214.642H282.14V218.737H286.115V214.642Z" fill="#455A64"/>
<path d="M286.115 223.604H282.14V227.699H286.115V223.604Z" fill="#455A64"/>
<path d="M286.115 232.567H282.14V236.661H286.115V232.567Z" fill="#455A64"/>
<path d="M286.115 241.536H282.14V245.631H286.115V241.536Z" fill="#455A64"/>
<path d="M286.115 250.499H282.14V254.593H286.115V250.499Z" fill="#455A64"/>
<g opacity="0.3">
<path d="M205.52 296.47C207.04 288.888 202.099 266.209 202.099 266.209L165.142 270.895L163.622 296.303L205.52 296.47Z" fill="black"/>
</g>
<path d="M158.499 266.209C158.499 266.209 160.126 296.364 153.346 306.737L199.371 307.866C199.371 307.866 202.943 290.253 202.13 266.209H158.499Z" fill="#0081DA"/>
<path d="M201.978 272.047C201.978 272.154 192.393 272.245 180.58 272.245C168.768 272.245 159.183 272.154 159.183 272.047C159.183 271.941 168.761 271.85 180.58 271.85C192.4 271.85 201.978 271.941 201.978 272.047Z" fill="#263238"/>
<path d="M196.862 282.367C196.862 282.473 189.2 282.564 179.759 282.564C170.319 282.564 162.657 282.473 162.657 282.367C162.657 282.261 170.311 282.17 179.759 282.17C189.208 282.17 196.862 282.261 196.862 282.367Z" fill="#263238"/>
<path d="M197.265 288.001C197.265 288.107 189.61 288.198 180.162 288.198C170.714 288.198 163.06 288.107 163.06 288.001C163.06 287.894 170.714 287.803 180.155 287.803C189.595 287.803 197.265 287.894 197.265 288.001Z" fill="#263238"/>
<path d="M196.163 293.634C196.163 293.741 188.501 293.832 179.06 293.832C169.619 293.832 161.958 293.741 161.958 293.634C161.958 293.528 169.612 293.437 179.06 293.437C188.508 293.437 196.163 293.528 196.163 293.634Z" fill="#263238"/>
<g opacity="0.3">
<path d="M150.898 266.77C150.898 266.77 152.867 289.092 152.867 297.031H147.196L150.898 266.77Z" fill="black"/>
</g>
<path d="M137.3 266.77C137.3 266.77 138.926 296.933 132.146 307.298H147.303C147.303 307.298 151.658 290.814 150.898 266.77H137.3Z" fill="#E0E0E0"/>
<path d="M349.174 135.627L374.661 106.405L349 87.8134L369.135 75.9927C369.135 75.9927 400.718 95.1379 400.3 106.633C399.927 117.096 360.112 143.566 360.112 143.566L349.174 135.627Z" fill="#FFBF9D"/>
<path d="M329.183 202.048C326.156 207.003 321.997 211.175 317.047 214.224C312.097 217.273 306.495 219.112 300.697 219.591C294.899 220.071 289.07 219.178 283.684 216.984C278.298 214.79 273.507 211.359 269.703 206.969C265.898 202.578 263.187 197.354 261.791 191.72C260.394 186.087 260.351 180.204 261.666 174.551C262.98 168.897 265.615 163.634 269.355 159.189C273.095 154.744 277.835 151.243 283.189 148.972C290.386 145.918 298.37 145.223 305.99 146.986C313.609 148.748 320.471 152.879 325.586 158.782C330.701 164.684 333.806 172.054 334.452 179.83C335.099 187.606 333.254 195.385 329.183 202.048ZM268.229 164.986C263.955 171.979 262.325 180.266 263.634 188.352C264.943 196.439 269.105 203.793 275.369 209.089C281.633 214.385 289.588 217.274 297.799 217.237C306.01 217.2 313.938 214.238 320.154 208.885C326.369 203.532 330.463 196.141 331.699 188.043C332.934 179.945 331.228 171.674 326.89 164.719C322.551 157.765 315.865 152.585 308.037 150.113C300.208 147.642 291.752 148.041 284.192 151.239C277.567 154.034 271.985 158.828 268.229 164.948V164.986Z" fill="#0081DA"/>
<g opacity="0.3">
<path d="M329.183 202.048C326.156 207.003 321.997 211.175 317.047 214.224C312.097 217.273 306.495 219.112 300.697 219.591C294.899 220.071 289.07 219.178 283.684 216.984C278.298 214.79 273.507 211.359 269.703 206.969C265.898 202.578 263.187 197.354 261.791 191.72C260.394 186.087 260.351 180.204 261.666 174.551C262.98 168.897 265.615 163.634 269.355 159.189C273.095 154.744 277.835 151.243 283.189 148.972C290.386 145.918 298.37 145.223 305.99 146.986C313.609 148.748 320.471 152.879 325.586 158.782C330.701 164.684 333.806 172.054 334.452 179.83C335.099 187.606 333.254 195.385 329.183 202.048ZM268.229 164.986C263.955 171.979 262.325 180.266 263.634 188.352C264.943 196.439 269.105 203.793 275.369 209.089C281.633 214.385 289.588 217.274 297.799 217.237C306.01 217.2 313.938 214.238 320.154 208.885C326.369 203.532 330.463 196.141 331.699 188.043C332.934 179.945 331.228 171.674 326.89 164.719C322.551 157.765 315.865 152.585 308.037 150.113C300.208 147.642 291.752 148.041 284.192 151.239C277.567 154.034 271.985 158.828 268.229 164.948V164.986Z" fill="black"/>
</g>
<path d="M327.686 200.395C324.658 205.351 320.5 209.523 315.55 212.571C310.599 215.62 304.997 217.459 299.2 217.938C293.402 218.418 287.572 217.525 282.186 215.331C276.8 213.138 272.01 209.706 268.205 205.316C264.401 200.925 261.69 195.701 260.293 190.067C258.896 184.434 258.854 178.551 260.168 172.898C261.483 167.245 264.117 161.981 267.857 157.536C271.598 153.091 276.338 149.59 281.691 147.319C288.889 144.265 296.873 143.57 304.492 145.333C312.112 147.096 318.973 151.226 324.089 157.129C329.204 163.031 332.308 170.402 332.955 178.177C333.601 185.953 331.756 193.733 327.686 200.395ZM266.732 163.333C262.461 170.326 260.835 178.611 262.147 186.695C263.459 194.779 267.622 202.129 273.886 207.421C280.151 212.714 288.104 215.6 296.313 215.56C304.522 215.521 312.447 212.557 318.659 207.204C324.872 201.851 328.963 194.461 330.196 186.365C331.429 178.269 329.722 170 325.383 163.048C321.045 156.097 314.359 150.919 306.532 148.45C298.705 145.98 290.252 146.38 282.694 149.579C276.062 152.384 270.479 157.195 266.732 163.333Z" fill="#0081DA"/>
<path d="M381.411 132.655L382.855 134.93C384.155 136.931 382.566 140.162 379.723 141.473L331.509 170.923L327.009 164.357L374.007 131.533C377.048 129.213 379.739 130.077 381.411 132.655Z" fill="#0081DA"/>
<path d="M297.661 150.602C297.459 150.622 297.255 150.622 297.053 150.602C296.658 150.602 296.073 150.549 295.32 150.602C293.196 150.691 291.091 151.035 289.049 151.626C287.638 152.037 286.256 152.544 284.914 153.142C283.381 153.833 281.898 154.628 280.475 155.523C278.901 156.504 277.409 157.609 276.013 158.829C274.504 160.131 273.117 161.567 271.87 163.121C270.635 164.679 269.553 166.352 268.64 168.117C267.817 169.779 267.136 171.506 266.603 173.281C265.718 176.299 265.295 179.433 265.349 182.577C265.377 184.696 265.632 186.805 266.109 188.87C266.246 189.628 266.451 190.159 266.534 190.553C266.6 190.743 266.646 190.938 266.671 191.137C266.587 190.955 266.516 190.768 266.458 190.576C266.352 190.189 266.124 189.643 265.957 188.908C265.415 186.841 265.111 184.72 265.052 182.584C264.958 179.408 265.358 176.236 266.238 173.182C266.765 171.38 267.449 169.627 268.283 167.943C269.201 166.148 270.296 164.449 271.551 162.87C272.814 161.3 274.219 159.848 275.747 158.533C277.17 157.295 278.696 156.179 280.308 155.197C281.747 154.299 283.251 153.508 284.808 152.831C286.169 152.253 287.569 151.767 288.996 151.376C291.057 150.813 293.183 150.515 295.32 150.489C295.903 150.479 296.487 150.499 297.068 150.549C297.267 150.551 297.465 150.569 297.661 150.602Z" fill="white"/>
<path d="M326.485 190C326.394 190 327.078 188.317 327.557 185.488C327.61 185.132 327.671 184.73 327.724 184.381C327.777 184.033 327.792 183.585 327.838 183.168C327.929 182.334 327.914 181.432 327.929 180.484C327.859 176.371 326.903 172.321 325.124 168.61C324.691 167.769 324.303 166.957 323.847 166.252C323.627 165.896 323.429 165.539 323.209 165.213C322.988 164.887 322.768 164.592 322.563 164.296C320.868 161.983 319.522 160.8 319.583 160.732C319.914 160.988 320.226 161.267 320.518 161.566C320.883 161.895 321.224 162.249 321.537 162.628C321.982 163.108 322.398 163.614 322.783 164.144C323.004 164.432 323.224 164.736 323.46 165.054C323.695 165.373 323.893 165.729 324.129 166.093C324.612 166.858 325.056 167.648 325.459 168.459C326.355 170.336 327.058 172.3 327.557 174.32C328.024 176.345 328.279 178.414 328.317 180.492C328.317 181.447 328.317 182.357 328.188 183.206C328.142 183.623 328.119 184.04 328.051 184.427C327.982 184.814 327.914 185.185 327.853 185.541C327.739 186.183 327.592 186.818 327.412 187.445C327.299 187.922 327.151 188.391 326.971 188.847C326.842 189.245 326.68 189.63 326.485 190Z" fill="white"/>
<path d="M303.682 163.902C303.758 163.985 298.786 168.625 292.576 174.274C286.366 179.923 281.281 184.442 281.175 184.359C281.068 184.275 286.07 179.635 292.28 173.994C298.49 168.352 303.575 163.818 303.682 163.902Z" fill="white"/>
<path d="M313.137 169.884C313.028 170.005 312.909 170.117 312.78 170.218L311.716 171.128L307.778 174.441C304.449 177.231 299.858 181.098 294.856 185.428C289.855 189.757 285.332 193.723 282.086 196.604L278.225 200.016L277.168 200.933C277.052 201.047 276.922 201.147 276.781 201.229C276.882 201.101 276.994 200.982 277.115 200.873L278.126 199.902C279.008 199.061 280.293 197.87 281.927 196.399C285.134 193.465 289.604 189.461 294.628 185.124C299.653 180.787 304.274 176.966 307.657 174.229C309.344 172.856 310.697 171.757 311.678 171.014L312.788 170.157C312.893 170.052 313.01 169.961 313.137 169.884Z" fill="white"/>
<g opacity="0.3">
<path d="M266.945 198.461L317.652 154.818C317.652 154.818 322.661 158.609 324.79 162.067L272.897 206.597C270.408 204.291 268.388 201.529 266.945 198.461Z" fill="white"/>
</g>
<g opacity="0.3">
<path d="M278.453 210.692L327.861 167.761C327.861 167.761 328.104 167.359 328.78 170.445L280.878 212.034C279.978 211.776 279.149 211.317 278.453 210.692Z" fill="white"/>
</g>
<path d="M349.174 135.627C349.174 135.627 334.306 151.967 333.972 152.581C333.637 153.195 329.632 162.628 330.62 164.538C331.608 166.449 339.057 173.159 339.057 173.159C339.057 173.159 341.717 172.015 339.201 167.526L336.685 163.045L338.038 158.495C338.038 158.495 340.045 164.235 341.208 165.494C342.371 166.752 346.977 168.906 348.133 167.768C348.822 167.111 349.287 166.254 349.463 165.319C349.463 165.319 352.618 167.822 354.845 163.841C354.845 163.841 357.649 163.409 358.85 161.452C360.051 159.496 359.93 155.796 359.93 155.796C359.814 155.555 359.645 155.342 359.435 155.176C359.225 155.009 358.98 154.891 358.718 154.832C358.456 154.773 358.185 154.774 357.923 154.834C357.662 154.895 357.417 155.014 357.209 155.182C356.017 156.085 355.097 157.296 354.548 158.685L353.248 156.956C353.587 154.622 354.255 152.348 355.232 150.2C356.137 148.472 361.975 144.703 362.666 141.701C363.252 139.161 358.159 137.477 355.544 137.621C355.152 137.643 354.765 137.722 354.396 137.856L349.174 135.627Z" fill="#FFBF9D"/>
<path d="M347.882 156.494C347.859 156.642 347.859 156.793 347.882 156.941C347.916 157.34 347.984 157.736 348.087 158.124C348.422 159.422 349.088 160.613 350.02 161.578C350.953 162.544 352.12 163.253 353.408 163.636C353.795 163.753 354.192 163.834 354.594 163.879C354.74 163.902 354.889 163.902 355.035 163.879C355.035 163.833 354.404 163.788 353.454 163.469C352.211 163.054 351.085 162.35 350.17 161.415C349.27 160.467 348.607 159.321 348.232 158.071C347.943 157.123 347.92 156.494 347.882 156.494Z" fill="#FF9A6C"/>
<path d="M342.881 156.001C342.864 156.157 342.864 156.315 342.881 156.471C342.889 156.656 342.909 156.841 342.941 157.024C342.967 157.279 343.007 157.533 343.063 157.783C343.204 158.406 343.394 159.017 343.633 159.61C344.233 161.064 345.129 162.378 346.263 163.469C346.73 163.919 347.239 164.323 347.783 164.675C348.004 164.834 348.224 164.948 348.407 165.062C348.589 165.175 348.764 165.251 348.901 165.312C349.04 165.39 349.188 165.451 349.342 165.494C349.342 165.456 348.749 165.175 347.875 164.546C347.36 164.18 346.877 163.772 346.43 163.325C345.886 162.78 345.392 162.186 344.956 161.551C344.48 160.883 344.058 160.178 343.694 159.443C343.492 158.892 343.339 158.323 343.238 157.745C342.964 156.668 342.926 155.993 342.881 156.001Z" fill="#FF9A6C"/>
<path d="M337.187 154.818C337.187 154.818 337.058 155.038 337.005 155.432C336.95 155.945 337.013 156.463 337.187 156.948C337.341 157.451 337.631 157.902 338.024 158.253C338.312 158.526 338.533 158.639 338.548 158.617C338.052 158.116 337.66 157.524 337.393 156.873C337.194 156.207 337.125 155.51 337.187 154.818Z" fill="#FF9A6C"/>
<path d="M388.465 104.669C388.465 104.729 387.651 104.183 386.237 103.675C384.402 103.011 382.426 102.825 380.499 103.137C378.577 103.485 376.803 104.392 375.398 105.745C374.304 106.769 373.764 107.542 373.703 107.504C373.784 107.295 373.9 107.1 374.045 106.928C374.393 106.436 374.782 105.975 375.208 105.548C376.607 104.069 378.446 103.077 380.453 102.72C382.446 102.395 384.491 102.629 386.359 103.395C386.922 103.619 387.462 103.899 387.971 104.229C388.297 104.494 388.48 104.646 388.465 104.669Z" fill="#FF9A6C"/>
<path d="M311.381 37.1031C311.381 32.1367 311.381 27.1399 310.515 22.2418C309.648 17.3436 307.938 12.5137 304.852 8.59369C304.381 8.00227 300.785 4.18838 300.094 4.48409C299.6 4.70398 302.275 8.47995 302.161 9.03346C301.067 14.0529 302.04 19.3529 304.016 24.0994C305.979 28.6959 308.449 33.0599 311.381 37.1106" fill="#263238"/>
<path d="M305.962 18.9131C302.503 6.93312 292.637 -1.04344 280.726 2.74012L279.646 3.14956C274.405 5.15695 270.114 9.05843 267.625 14.0781C265.137 19.0978 264.633 24.868 266.215 30.2411C269.255 40.606 272.782 52.0174 274.918 57.3856C279.357 68.5012 291.223 65.9536 291.223 65.9536L298.626 82.9379L322.19 70.8896L305.962 18.9131Z" fill="#FFBF9D"/>
<path d="M291.276 66.0371C296.439 64.0493 300.923 60.629 304.198 56.1802C304.198 56.1802 304.533 66.621 292.971 69.8965L291.276 66.0371Z" fill="#FF9A6C"/>
<path d="M274.196 40.3103C274.355 40.724 274.67 41.0594 275.073 41.245C275.476 41.4306 275.936 41.4516 276.355 41.3036C276.564 41.2422 276.759 41.1397 276.928 41.0021C277.096 40.8645 277.236 40.6947 277.338 40.5025C277.44 40.3103 277.502 40.0997 277.522 39.8831C277.541 39.6665 277.516 39.4483 277.45 39.2412C277.285 38.8329 276.968 38.5039 276.566 38.323C276.163 38.1422 275.707 38.1234 275.291 38.2707C275.084 38.3323 274.892 38.434 274.725 38.57C274.558 38.706 274.42 38.8737 274.318 39.0633C274.216 39.2528 274.153 39.4606 274.132 39.6747C274.111 39.8887 274.133 40.1047 274.196 40.3103Z" fill="#263238"/>
<path d="M270.419 33.9564C270.7 34.0928 271.566 32.7356 273.292 32.076C275.017 31.4163 276.606 31.803 276.705 31.5225C276.766 31.3936 276.416 31.0903 275.717 30.9007C274.774 30.6723 273.783 30.7412 272.881 31.0978C271.985 31.4344 271.221 32.0482 270.7 32.8493C270.32 33.4559 270.289 33.9033 270.419 33.9564Z" fill="#263238"/>
<path d="M288.905 35.162C289.059 35.58 289.372 35.9211 289.775 36.1124C290.178 36.3037 290.641 36.33 291.063 36.1856C291.273 36.1243 291.469 36.0215 291.638 35.8834C291.808 35.7453 291.948 35.5747 292.05 35.3816C292.152 35.1886 292.214 34.9771 292.233 34.7596C292.251 34.5421 292.226 34.3231 292.158 34.1156C292.003 33.6976 291.691 33.3565 291.288 33.1652C290.884 32.9739 290.422 32.9477 289.999 33.092C289.79 33.1543 289.595 33.2576 289.426 33.3959C289.257 33.5342 289.118 33.7047 289.016 33.8975C288.914 34.0903 288.852 34.3015 288.832 34.5186C288.813 34.7357 288.838 34.9545 288.905 35.162Z" fill="#263238"/>
<path d="M287.536 28.2014C287.818 28.3379 288.684 26.9731 290.41 26.321C292.135 25.6689 293.716 26.0481 293.822 25.7599C293.883 25.6386 293.534 25.3353 292.834 25.1458C291.892 24.9184 290.903 24.9846 289.999 25.3353C289.102 25.6771 288.336 26.2928 287.81 27.0944C287.445 27.701 287.407 28.1484 287.536 28.2014Z" fill="#263238"/>
<path d="M286.442 43.7527C286.442 43.6465 285.271 43.874 283.455 44.3137C282.999 44.4426 282.55 44.5109 282.36 44.2379C282.144 43.8011 282.073 43.3075 282.155 42.8276C282.155 41.6145 282.155 40.333 282.155 38.9986C282.155 33.5545 281.934 29.1416 281.714 29.1416C281.493 29.1416 281.334 33.5621 281.357 38.9986C281.357 40.3406 281.357 41.6144 281.402 42.8352C281.334 43.4685 281.487 44.1059 281.836 44.6398C281.96 44.7692 282.112 44.8692 282.281 44.9322C282.449 44.9951 282.629 45.0196 282.808 45.0037C283.068 44.9733 283.323 44.9122 283.569 44.8218C285.385 44.2531 286.472 43.8512 286.442 43.7527Z" fill="#263238"/>
<path d="M291.96 43.0021C291.671 43.0931 292.386 44.9508 291.299 46.8842C290.212 48.8177 288.144 49.3788 288.258 49.6442C288.258 49.7731 288.844 49.8338 289.687 49.538C290.778 49.1375 291.694 48.3707 292.279 47.3695C292.835 46.3939 292.99 45.2419 292.713 44.1546C292.469 43.3206 292.082 42.9415 291.96 43.0021Z" fill="#263238"/>
<path d="M284.952 21.203C285.302 21.6049 286.936 20.7253 289.049 20.1946C291.162 19.6638 293.002 19.588 293.108 19.0724C293.154 18.8222 292.698 18.4961 291.869 18.3142C290.777 18.0892 289.647 18.123 288.57 18.4127C287.492 18.678 286.494 19.1981 285.659 19.9292C285.028 20.4979 284.8 21.0135 284.952 21.203Z" fill="#263238"/>
<path d="M268.937 27.9814C269.393 28.2544 270.419 27.3976 271.84 26.8365C273.262 26.2754 274.569 26.0783 274.691 25.5703C274.736 25.3276 274.394 25.0092 273.725 24.812C272.848 24.6482 271.942 24.7448 271.119 25.0899C270.296 25.4349 269.593 26.0132 269.096 26.7531C268.716 27.3824 268.716 27.845 268.937 27.9814Z" fill="#263238"/>
<path d="M308.242 27.5342C308.402 27.3749 315.083 22.3175 317.751 30.0439C320.419 37.7702 312.134 38.8772 312.043 38.6574C311.952 38.4375 308.242 27.5342 308.242 27.5342Z" fill="#FFBF9D"/>
<path d="M313.388 34.9118C313.388 34.9118 313.555 34.9573 313.821 34.98C314.19 35.0078 314.556 34.8908 314.84 34.654C315.547 34.0701 315.79 32.5385 315.342 31.1282C315.136 30.463 314.788 29.85 314.323 29.3312C314.166 29.116 313.958 28.9422 313.718 28.8247C313.479 28.7071 313.214 28.6494 312.947 28.6564C312.78 28.6748 312.623 28.7481 312.502 28.8647C312.381 28.9813 312.302 29.1347 312.278 29.3009C312.278 29.5511 312.354 29.6876 312.316 29.7179C312.278 29.7482 312.103 29.6421 312.058 29.3009C312.03 29.0937 312.079 28.8836 312.195 28.7095C312.352 28.4754 312.595 28.3121 312.871 28.2545C313.211 28.2072 313.557 28.2479 313.877 28.3727C314.196 28.4975 314.478 28.7023 314.695 28.9673C315.262 29.5198 315.68 30.2055 315.912 30.9614C316.406 32.5309 316.117 34.2673 315.106 34.98C314.92 35.1116 314.706 35.1998 314.481 35.2378C314.256 35.2759 314.025 35.2629 313.806 35.1999C313.464 35.0937 313.365 34.9345 313.388 34.9118Z" fill="#FF9A6C"/>
<path d="M266.93 15.7059C265.41 15.4405 267.834 10.1025 270.449 7.66863C274.402 3.97606 281.091 0.275911 285.819 0.0408608C291.497 -0.239684 296.673 0.882493 300.869 4.71154C305.003 8.65581 308.008 13.6289 309.572 19.1179C310.196 20.743 310.372 22.5049 310.082 24.2207C309.572 26.2983 307.862 28.0801 308.751 30.4155C308.927 30.8334 309.017 31.2818 309.017 31.7348C309.017 32.1878 308.927 32.6362 308.751 33.0541C307.839 35.0407 305.62 34.2066 304.343 33.0541C301.606 30.5974 300.185 27.0338 298.862 23.6066C297.92 21.1727 296.962 18.6781 296.856 16.0698C296.802 14.6519 297 13.2264 296.856 11.8086C296.831 11.0966 296.651 10.3984 296.33 9.76227C296.008 9.12611 295.552 8.56703 294.993 8.12357C294.723 7.9561 294.438 7.81396 294.142 7.69896C292.74 7.12094 291.208 6.92584 289.706 7.13372C288.203 7.34161 286.782 7.94497 285.591 8.8818C281.737 11.9147 275.048 16.7219 272.593 15.903C269.066 14.7126 267.918 13.5525 267.918 13.5525L266.93 15.7059Z" fill="#263238"/>
<path d="M255.209 87.6161C255.209 87.6161 254.099 84.4922 257.862 80.2917C261.624 76.0911 291.444 67.8416 291.444 67.8416C291.444 67.8416 302.283 80.0869 311.663 71.7237C318.504 65.6579 318.732 59.592 318.732 59.592H345.716L349.083 87.2446L338.328 87.3053L255.209 87.6161Z" fill="#0081DA"/>
<path d="M340.813 59.5844C340.813 59.5844 347.852 58.1665 354.282 61.1009C365.084 65.9914 383.851 81.573 383.851 81.573L361.047 100.263L345.237 87.328L340.813 59.5844Z" fill="#0081DA"/>
<path d="M350.619 91.7941C350.514 91.7561 350.414 91.7052 350.322 91.6425C350.14 91.5288 349.866 91.362 349.562 91.1269C348.615 90.472 347.718 89.7471 346.879 88.9584C345.621 87.7939 344.488 86.5031 343.496 85.1066C342.235 83.4038 341.375 81.4393 340.98 79.3592C340.22 74.9463 340.881 70.7609 342.31 68.1829C342.858 67.1546 343.614 66.2509 344.53 65.5291C344.784 65.3439 345.051 65.1767 345.328 65.0287C345.511 64.9225 345.617 64.8695 345.625 64.8846C345.632 64.8998 345.26 65.1576 344.621 65.6429C343.77 66.3919 343.068 67.2949 342.554 68.3042C341.231 70.8443 340.593 74.9539 341.368 79.2758C341.754 81.3007 342.582 83.2162 343.793 84.8867C344.756 86.2765 345.853 87.5691 347.069 88.7461C347.888 89.5513 348.75 90.3107 349.653 91.0208C349.989 91.2613 350.311 91.5194 350.619 91.7941Z" fill="#263238"/>
<path d="M345.214 87.2598C345.214 87.366 326.637 87.5328 303.719 87.6238C280.802 87.7148 262.217 87.6996 262.217 87.5859C262.217 87.4721 280.794 87.3205 303.719 87.2295C326.644 87.1385 345.214 87.1461 345.214 87.2598Z" fill="#263238"/>
<path d="M245.487 83.4762C245.54 83.5899 245.586 83.7036 245.631 83.8174C245.818 84.3557 245.931 84.9169 245.966 85.4855C245.963 85.7539 245.976 86.0222 246.004 86.2892C246.065 86.4514 246.138 86.6086 246.224 86.7593C246.558 87.8328 246.659 88.9649 246.52 90.0803C246.377 91.2977 246.591 92.5303 247.136 93.6288C247.775 94.6752 249.257 95.2894 250.268 94.5918C250.219 94.9777 250.313 95.3682 250.533 95.6895C250.753 96.0107 251.083 96.2406 251.461 96.3357C251.844 96.418 252.242 96.4005 252.616 96.285C252.99 96.1694 253.328 95.9597 253.597 95.6761C254.132 95.1061 254.5 94.4006 254.661 93.6364C254.677 94.0931 254.87 94.5259 255.198 94.844C255.527 95.1621 255.967 95.3408 256.425 95.3424C256.882 95.321 257.327 95.1846 257.718 94.946C258.108 94.7074 258.432 94.3744 258.66 93.9776C259.099 93.1759 259.358 92.2885 259.42 91.3769C259.54 90.2049 259.725 89.0405 259.975 87.8891C259.975 87.8891 261.122 88.0786 261.647 88.1241H261.799C262.259 87.5521 262.628 86.9128 262.893 86.2285C263.654 84.7121 264.186 83.7719 264.74 82.4374C265.166 81.4214 265.432 80.3978 264.801 79.7381C263.281 78.1383 260.301 81.391 260.301 81.391C259.876 80.2537 256.417 80.0717 255.741 81.5806C255.467 80.7465 255.573 80.2689 254.897 79.7078C254.566 79.4212 254.172 79.2164 253.747 79.1097C253.321 79.003 252.877 78.9975 252.449 79.0936C252.017 79.1972 251.632 79.4427 251.357 79.7905C251.081 80.1384 250.93 80.5685 250.929 81.0119C250.559 80.4439 250.026 80.0004 249.4 79.7394C248.773 79.4783 248.082 79.4118 247.417 79.5486C246.622 79.7428 245.926 80.2234 245.464 80.8982C245.235 81.2299 245.068 81.5997 244.97 81.9901C244.916 82.1357 244.887 82.2897 244.886 82.445C244.899 82.5138 244.922 82.5803 244.955 82.6421C245.152 82.9151 245.35 83.1729 245.487 83.4762Z" fill="#FFBF9D"/>
<path d="M241.831 81.27C241.455 81.2282 241.075 81.2682 240.717 81.3874C240.359 81.5065 240.031 81.7019 239.756 81.9599C239.204 82.8077 238.975 83.8244 239.109 84.826C240.151 85.0232 240.691 85.0687 241.739 85.2658C241.96 85.3037 242.142 85.2658 242.325 85.3795C242.804 85.7207 242.728 86.896 242.918 87.4268C243.123 87.8961 243.5 88.2697 243.971 88.4712C244.443 88.6727 244.974 88.687 245.456 88.511C245.929 88.308 246.334 87.9747 246.623 87.5503C246.913 87.126 247.075 86.6281 247.091 86.115C247.098 85.0805 246.718 84.0803 246.027 83.3096C245.506 82.6993 244.865 82.203 244.142 81.852C243.42 81.501 242.633 81.3028 241.831 81.27Z" fill="#FFBF9D"/>
<path d="M250.975 80.7314C251.172 80.7314 251.172 83.8629 250.975 87.6996C250.777 91.5362 250.458 94.6373 250.268 94.6298C250.078 94.6222 250.07 91.4983 250.268 87.6616C250.466 83.825 250.785 80.686 250.975 80.7314Z" fill="#FF9A6C"/>
<path d="M255.794 81.3533C255.984 81.3533 256.235 84.189 255.931 87.6769C255.627 91.1647 254.897 93.9247 254.715 93.8868C254.532 93.8489 254.935 91.0586 255.224 87.6162C255.513 84.1739 255.574 81.3609 255.794 81.3533Z" fill="#FF9A6C"/>
<path d="M260.476 81.9978C260.674 81.9978 260.758 84.3559 260.385 87.222C260.013 90.0881 259.579 92.3552 259.397 92.3401C259.215 92.3249 259.321 89.9744 259.686 87.131C260.051 84.2877 260.279 81.9902 260.476 81.9978Z" fill="#FF9A6C"/>
<path d="M243.336 81.755C243.336 81.6716 243.837 81.5579 244.559 81.8915C245.47 82.3566 246.16 83.1599 246.482 84.1283C246.82 85.0479 246.983 86.0226 246.961 87.0019C246.878 87.8663 246.247 88.1165 246.201 88.0028C246.156 87.8891 246.49 87.6237 246.429 86.9868C246.302 86.0987 246.088 85.2251 245.791 84.3785C245.506 83.5546 244.976 82.8375 244.27 82.3237C243.769 81.9446 243.328 81.8612 243.336 81.755Z" fill="#FF9A6C"/>
<path d="M358.532 322C362.073 319.705 364.878 316.44 366.608 312.597C368.339 308.754 368.924 304.495 368.292 300.33L376.919 294.688L378.143 293.93L446.454 249.271C449.748 251.36 453.54 252.537 457.441 252.68C461.342 252.823 465.211 251.926 468.649 250.083C472.088 248.24 474.972 245.517 477.005 242.193C479.039 238.869 480.148 235.065 480.219 231.172L476.228 230.482L471.88 236.548L461.885 234.447L456.305 225.917L458.411 215.939L466.719 210.533L461.094 209.062C455.135 207.31 451.828 208.736 446.219 212.39C442.69 214.687 439.897 217.947 438.173 221.782C436.45 225.618 435.868 229.867 436.497 234.023L367.045 279.433L364.894 280.828L358.311 285.127C354.751 282.877 350.618 281.696 346.403 281.725C342.189 281.753 338.072 282.989 334.542 285.286C328.955 288.918 321.423 296.478 320.609 302.597L324.577 303.249L332.885 297.843L342.888 299.943L348.468 308.473L346.362 318.451L337.416 320.969L338.046 323.858C341.353 325.241 344.95 325.795 348.521 325.471C352.092 325.147 355.529 323.956 358.532 322Z" fill="#E0E0E0"/>
<g opacity="0.3">
<path d="M358.532 322C362.073 319.705 364.878 316.44 366.608 312.597C368.339 308.754 368.924 304.495 368.292 300.33L376.919 294.688L378.143 293.93L446.454 249.271C449.748 251.36 453.54 252.537 457.441 252.68C461.342 252.823 465.211 251.926 468.649 250.083C472.088 248.24 474.972 245.517 477.005 242.193C479.039 238.869 480.148 235.065 480.219 231.172L476.228 230.482L471.88 236.548L461.885 234.447L456.305 225.917L458.411 215.939L466.719 210.533L461.094 209.062C455.135 207.31 451.828 208.736 446.219 212.39C442.69 214.687 439.897 217.947 438.173 221.782C436.45 225.618 435.868 229.867 436.497 234.023L367.045 279.433L364.894 280.828L358.311 285.127C354.751 282.877 350.618 281.696 346.403 281.725C342.189 281.753 338.072 282.989 334.542 285.286C328.955 288.918 321.423 296.478 320.609 302.597L324.577 303.249L332.885 297.843L342.888 299.943L348.468 308.473L346.362 318.451L337.416 320.969L338.046 323.858C341.353 325.241 344.95 325.795 348.521 325.471C352.092 325.147 355.529 323.956 358.532 322Z" fill="black"/>
</g>
<path d="M354.564 321.348C358.1 319.049 360.898 315.783 362.622 311.94C364.346 308.097 364.924 303.84 364.286 299.678L372.921 294.029L374.137 293.271L442.449 248.603C445.744 250.7 449.54 251.882 453.446 252.027C457.352 252.173 461.226 251.276 464.668 249.429C468.111 247.582 470.997 244.853 473.029 241.522C475.061 238.191 476.165 234.38 476.228 230.482L467.867 235.895L457.871 233.795L452.292 225.257L454.398 215.287L462.713 209.873C459.114 208.366 455.178 207.843 451.309 208.357C447.44 208.871 443.778 210.403 440.699 212.797C437.621 215.19 435.237 218.359 433.793 221.976C432.349 225.593 431.897 229.529 432.483 233.378L363.032 278.796L360.911 280.146L354.328 284.452C351.033 282.37 347.242 281.199 343.344 281.061C339.445 280.924 335.581 281.823 332.146 283.668C328.712 285.513 325.832 288.237 323.802 291.559C321.771 294.882 320.664 298.684 320.594 302.574L328.91 297.16L338.905 299.261L344.485 307.798L342.379 317.769L334.086 323.205C337.392 324.588 340.987 325.141 344.557 324.817C348.126 324.493 351.562 323.302 354.564 321.348Z" fill="#E0E0E0"/>
<path d="M354.564 321.348C354.564 321.348 354.169 321.606 353.386 322.106C352.187 322.776 350.933 323.344 349.638 323.804C344.548 325.541 338.997 325.358 334.033 323.289L333.896 323.236L334.025 323.152L342.334 317.731L342.288 317.784C342.934 314.713 343.633 311.369 344.378 307.813V307.897C342.638 305.228 340.76 302.362 338.791 299.367L338.867 299.412L328.864 297.327H328.963L320.647 302.748L320.435 302.885V302.635C320.49 298.91 321.492 295.261 323.348 292.029C325.204 288.797 327.853 286.088 331.046 284.157C334.475 282.048 338.42 280.923 342.448 280.904C346.671 280.895 350.809 282.084 354.381 284.331H354.207L432.415 233.211L432.331 233.393C431.723 229.279 432.278 225.078 433.935 221.262C435.528 217.621 438.075 214.477 441.308 212.158C444.541 209.839 448.341 208.431 452.307 208.084C455.889 207.773 459.494 208.332 462.812 209.714L463.139 209.858L462.842 210.047L454.527 215.461L454.61 215.34C453.906 218.691 453.204 222.015 452.505 225.311V225.174L458.084 233.704L457.97 233.628L467.966 235.729H467.829L476.144 230.322L476.433 230.14V230.474C476.356 234.528 475.161 238.483 472.98 241.904C470.798 245.325 467.714 248.081 464.066 249.87C460.6 251.599 456.738 252.384 452.87 252.144C449.134 251.897 445.519 250.727 442.35 248.74H442.524L364.316 299.769V299.685C364.84 303.281 364.48 306.95 363.267 310.376C362.381 312.867 361.052 315.179 359.345 317.2C358.302 318.417 357.132 319.52 355.856 320.491C354.967 321.105 354.511 321.408 354.511 321.408L355.826 320.453C357.088 319.472 358.247 318.364 359.284 317.147C361.289 314.751 362.76 311.957 363.599 308.95C364.438 305.943 364.625 302.793 364.149 299.708V299.655H364.194L442.312 248.497L442.403 248.444L442.494 248.497C445.614 250.455 449.176 251.605 452.854 251.841C456.664 252.085 460.47 251.316 463.884 249.612C467.461 247.844 470.483 245.13 472.618 241.766C474.754 238.401 475.921 234.516 475.992 230.535L476.266 230.686L467.95 236.1L467.89 236.138H467.814L457.818 234.045H457.742V233.985L452.155 225.447L452.117 225.386V225.311C452.811 222.01 453.513 218.686 454.223 215.34V215.264L454.284 215.219L462.599 209.812V210.138C459.334 208.769 455.784 208.214 452.255 208.521C448.727 208.829 445.327 209.991 442.35 211.905C438.783 214.221 435.976 217.529 434.277 221.421C432.646 225.177 432.101 229.314 432.704 233.363V233.477L432.605 233.545L354.419 284.612L354.328 284.665L354.237 284.612C350.71 282.388 346.62 281.215 342.448 281.23C338.57 281.252 334.767 282.3 331.429 284.268C328.09 286.235 325.335 289.052 323.445 292.429C321.714 295.545 320.775 299.035 320.708 302.597L320.495 302.483L328.857 297.077H328.91L338.905 299.185H338.951V299.23L344.523 307.768V307.806V307.851C343.763 311.4 343.056 314.744 342.402 317.822V317.86L334.041 323.258V323.122C338.97 325.187 344.483 325.394 349.555 323.706C350.851 323.258 352.107 322.703 353.31 322.045L354.564 321.348Z" fill="#263238"/>
<path d="M439.37 245.555C439.37 245.555 439.18 245.457 438.876 245.237C438.447 244.911 438.038 244.559 437.652 244.183C435.088 241.688 433.344 238.476 432.65 234.97C432.542 234.445 432.471 233.913 432.438 233.378C432.408 233.185 432.408 232.988 432.438 232.794C432.498 232.794 432.597 233.613 432.909 234.917C433.322 236.61 433.951 238.243 434.779 239.777C435.61 241.307 436.632 242.726 437.819 244.001C438.762 244.971 439.408 245.502 439.37 245.555Z" fill="#263238"/>
<path d="M135.886 41.3037H81.3324C77.189 41.3037 73.8301 44.6543 73.8301 48.7874V103.205C73.8301 107.339 77.189 110.689 81.3324 110.689H135.886C140.029 110.689 143.388 107.339 143.388 103.205V48.7874C143.388 44.6543 140.029 41.3037 135.886 41.3037Z" fill="#0081DA"/>
<g opacity="0.3">
<path d="M135.886 41.3037H81.3324C77.189 41.3037 73.8301 44.6543 73.8301 48.7874V103.205C73.8301 107.339 77.189 110.689 81.3324 110.689H135.886C140.029 110.689 143.388 107.339 143.388 103.205V48.7874C143.388 44.6543 140.029 41.3037 135.886 41.3037Z" fill="black"/>
</g>
<path d="M125.685 41.3037H71.1317C66.9883 41.3037 63.6294 44.6543 63.6294 48.7874V103.205C63.6294 107.339 66.9883 110.689 71.1317 110.689H125.685C129.829 110.689 133.188 107.339 133.188 103.205V48.7874C133.188 44.6543 129.829 41.3037 125.685 41.3037Z" fill="#0081DA"/>
<path d="M88.6144 60.5323C90.0495 59.6626 91.5966 58.9917 93.2131 58.5381L94.1556 53.9888L101.848 53.8523L102.958 58.3562C104.589 58.756 106.159 59.3732 107.625 60.1911L111.509 57.6434L117.05 62.951L114.641 66.9166C115.506 68.3507 116.176 69.8933 116.632 71.5038L121.193 72.4516L121.33 80.1249L116.815 81.2319C116.413 82.8587 115.794 84.4244 114.975 85.8874L117.529 89.762L112.208 95.2819L108.233 92.8783C106.797 93.7467 105.25 94.4175 103.634 94.8724L102.684 99.4218L94.9918 99.5583L93.8896 95.0771C92.2598 94.6727 90.6906 94.0557 89.2225 93.2422L85.3383 95.7823L79.8046 90.4747L82.2142 86.5168C81.3436 85.0818 80.6712 83.5363 80.2151 81.9219L75.6544 80.9817L75.5176 73.3084L80.0327 72.2014C80.4369 70.5753 81.0554 69.0098 81.8722 67.5459L79.3258 63.6713L84.6466 58.1439L88.622 60.555L88.6144 60.5323ZM92.7114 70.7532C91.5768 71.9246 90.8159 73.4054 90.5251 75.0082C90.2343 76.6111 90.4266 78.2639 91.0776 79.7578C91.7286 81.2516 92.8092 82.5192 94.1826 83.4003C95.556 84.2815 97.1605 84.7365 98.7932 84.7079C100.426 84.6792 102.013 84.1682 103.355 83.2394C104.696 82.3107 105.732 81.0059 106.329 79.4901C106.927 77.9744 107.061 76.3158 106.714 74.7242C106.367 73.1326 105.554 71.6794 104.379 70.5485C102.804 69.033 100.691 68.2033 98.5028 68.2417C96.315 68.2801 94.2319 69.1834 92.7114 70.7532Z" fill="white"/>
<g opacity="0.3">
<path d="M117.56 41.3037L63.6294 84.2725V92.6357L127.935 41.3037H117.56Z" fill="white"/>
</g>
<g opacity="0.3">
<path d="M63.698 102.387L133.188 48.613V63.7094L70.9571 110.719C69.997 110.719 69.0465 110.528 68.1604 110.159C67.2744 109.791 66.4701 109.251 65.7941 108.571C65.118 107.891 64.5834 107.084 64.221 106.197C63.8587 105.31 63.6758 104.36 63.6828 103.403L63.698 102.387Z" fill="white"/>
</g>
</svg>
