<svg width="467" height="431" viewBox="0 0 467 431" fill="none" xmlns="http://www.w3.org/2000/svg">
<path d="M450.871 259.654C437.691 299.594 409.301 343.364 367.531 357.654C304.411 379.184 298.771 430.954 184.211 430.654C167.487 430.683 150.809 428.893 134.471 425.314C126.484 423.538 118.618 421.254 110.921 418.474C43.0613 393.904 5.90135 335.714 0.601346 273.474C-6.39865 191.654 49.2913 150.374 85.6013 126.064C121.911 101.754 163.241 11.3743 275.861 10.8343C293.054 10.6882 310.207 12.5202 326.981 16.2943C365.221 25.0743 404.571 46.2943 428.211 78.5043C429.978 80.9243 431.681 83.4043 433.321 85.9443C465.201 135.544 468.831 205.214 450.871 259.654Z" fill="#0081DA"/>
<path opacity="0.7" d="M450.871 259.654C437.691 299.594 409.301 343.364 367.531 357.654C304.411 379.184 298.771 430.954 184.211 430.654C167.487 430.683 150.809 428.893 134.471 425.314C126.484 423.538 118.618 421.254 110.921 418.474C43.0613 393.904 5.90135 335.714 0.601346 273.474C-6.39865 191.654 49.2913 150.374 85.6013 126.064C121.911 101.754 163.241 11.3743 275.861 10.8343C293.054 10.6882 310.207 12.5202 326.981 16.2943C365.221 25.0743 404.571 46.2943 428.211 78.5043C429.978 80.9243 431.681 83.4043 433.321 85.9443C465.201 135.544 468.831 205.214 450.871 259.654Z" fill="white"/>
<path d="M466.231 413.344H4.48145C4.34964 413.342 4.22394 413.288 4.13072 413.195C4.0375 413.102 3.98401 412.976 3.98145 412.844C3.98145 412.712 4.03412 412.584 4.12789 412.491C4.22166 412.397 4.34884 412.344 4.48145 412.344H466.231C466.364 412.344 466.491 412.397 466.585 412.491C466.679 412.584 466.731 412.712 466.731 412.844C466.729 412.976 466.675 413.102 466.582 413.195C466.489 413.288 466.363 413.342 466.231 413.344Z" fill="#263238"/>
<path d="M21.7013 349.574C23.8613 350.514 29.1213 350.394 29.1313 350.394C29.1413 350.394 27.9913 346.954 27.8913 346.744C26.7413 344.324 23.0813 340.334 20.1113 340.744C19.6193 340.824 19.1497 341.007 18.7331 341.281C18.3165 341.555 17.9622 341.913 17.6934 342.333C17.4245 342.753 17.2471 343.225 17.1726 343.718C17.0982 344.211 17.1284 344.714 17.2613 345.194C17.7613 347.244 19.8713 348.774 21.7013 349.574Z" fill="#263238"/>
<path d="M23.5413 364.834C25.7713 365.154 30.4713 363.834 30.8513 363.684C31.6216 366.376 32.5738 369.012 33.7013 371.574C34.3413 373.064 35.0413 374.574 35.7613 376.034L34.8813 374.774C33.1313 372.774 28.5513 369.864 25.7913 371.044C25.3436 371.252 24.944 371.55 24.6181 371.921C24.2922 372.291 24.0471 372.725 23.8984 373.196C23.7498 373.666 23.7008 374.163 23.7547 374.653C23.8085 375.143 23.964 375.617 24.2113 376.044C25.2113 377.904 27.6813 378.824 29.6613 379.104C31.6413 379.384 35.6613 378.314 36.7613 378.014L37.5413 379.714C38.9013 382.424 40.2713 385.124 41.5413 387.814C41.9913 388.764 42.3913 389.714 42.8013 390.654L42.0413 389.564C40.2813 387.564 35.7113 384.654 32.9413 385.834C32.4934 386.041 32.0937 386.34 31.768 386.711C31.4422 387.081 31.1976 387.516 31.0497 387.987C30.9019 388.458 30.8541 388.954 30.9095 389.445C30.9649 389.935 31.1222 390.408 31.3713 390.834C32.3713 392.694 34.8313 393.604 36.8113 393.894C38.7913 394.184 42.4613 393.214 43.7213 392.894C44.1113 393.894 44.5013 394.894 44.8313 395.824C45.0513 396.494 45.3013 397.124 45.4713 397.824C45.6413 398.524 45.8413 399.164 46.0313 399.824C46.3413 401.104 46.6613 402.424 46.9313 403.684C47.1213 404.554 47.2913 405.394 47.4613 406.234C47.0313 405.284 46.1413 403.454 46.0513 403.304C44.6313 401.034 40.5413 397.494 37.6313 398.234C37.1524 398.372 36.7077 398.608 36.3259 398.929C35.9442 399.249 35.634 399.646 35.4153 400.093C35.1966 400.541 35.0744 401.03 35.0564 401.528C35.0385 402.026 35.1253 402.522 35.3113 402.984C36.0413 404.984 38.3113 406.244 40.2313 406.834C42.3413 407.474 47.0013 406.884 47.5813 406.834C47.8613 408.224 48.1213 409.584 48.3413 410.834C48.4613 411.514 48.5713 412.144 48.6713 412.834H50.5413C50.4013 412.094 50.2613 411.334 50.1013 410.544C49.8213 409.124 49.5013 407.614 49.1013 406.074C50.5035 405.509 51.8723 404.865 53.2013 404.144C54.7413 405.804 58.6713 407.754 59.2013 408.004C58.6713 409.314 58.1313 410.594 57.6113 411.784L57.1513 412.834H59.1513L59.3013 412.484C59.8513 411.144 60.4113 409.704 60.9713 408.224C61.5313 408.344 66.1513 409.284 68.3013 408.794C70.3013 408.354 72.6213 407.254 73.4913 405.324C73.7119 404.875 73.8349 404.384 73.8523 403.883C73.8697 403.383 73.7811 402.885 73.5922 402.421C73.4033 401.957 73.1185 401.539 72.7564 401.193C72.3943 400.847 71.9632 400.582 71.4913 400.414C68.6513 399.414 64.3113 402.684 62.7213 404.844C62.6213 404.974 61.7213 406.464 61.2313 407.414C61.4613 406.814 61.6813 406.224 61.9113 405.594C62.3613 404.364 62.7813 403.114 63.2313 401.774L63.8313 399.774C64.0413 399.114 64.1813 398.394 64.3613 397.694C64.7513 396.074 65.0613 394.404 65.3613 392.694C66.4413 393.084 70.3613 394.434 72.3613 394.294C74.3613 394.154 76.8613 393.424 78.0213 391.644C78.3061 391.235 78.5018 390.771 78.5958 390.281C78.6897 389.792 78.6798 389.288 78.5667 388.802C78.4536 388.317 78.2397 387.861 77.9391 387.463C77.6384 387.065 77.2576 386.735 76.8213 386.494C74.1613 385.124 69.3713 387.654 67.4813 389.544C67.3613 389.664 66.1513 391.174 65.4813 392.014C65.6413 391.014 65.8013 390.014 65.9313 388.964C66.3013 385.964 66.5813 382.964 66.8713 379.964C66.9613 379.034 67.0613 378.114 67.1613 377.194C67.5413 377.344 72.1113 379.044 74.3613 378.884C76.3613 378.744 78.8613 378.014 80.0113 376.234C80.298 375.826 80.4956 375.362 80.5911 374.873C80.6867 374.384 80.678 373.88 80.5658 373.394C80.4535 372.908 80.2401 372.451 79.9395 372.053C79.639 371.655 79.2579 371.325 78.8213 371.084C76.1513 369.714 71.3713 372.244 69.4713 374.084C69.3313 374.234 67.5913 376.404 67.1813 376.974C67.3913 374.974 67.6213 372.974 67.9313 370.974C68.3385 368.3 68.9164 365.655 69.6613 363.054C69.8413 363.114 74.6013 364.914 76.9013 364.754C78.9013 364.614 81.4013 363.884 82.5613 362.104C82.8461 361.695 83.0418 361.231 83.1358 360.741C83.2297 360.252 83.2198 359.748 83.1067 359.262C82.9936 358.777 82.7797 358.321 82.4791 357.923C82.1784 357.525 81.7976 357.195 81.3613 356.954C78.7013 355.584 73.9213 358.114 72.0213 360.004C71.8713 360.154 70.0213 362.494 69.6913 362.944C69.6913 362.794 69.7613 362.634 69.8113 362.484C70.6313 359.895 71.6822 357.385 72.9513 354.984C73.6313 353.654 74.3613 352.414 75.0913 351.224C75.9513 351.644 79.8613 353.544 81.9513 353.634C84.0413 353.724 86.5213 353.254 87.8613 351.634C88.1895 351.259 88.4355 350.82 88.5831 350.344C88.7308 349.868 88.7769 349.366 88.7184 348.871C88.66 348.377 88.4983 347.899 88.2439 347.471C87.9894 347.043 87.6478 346.672 87.2413 346.384C84.7413 344.724 79.7113 346.714 77.6113 348.384C77.5013 348.484 76.4413 349.534 75.6913 350.304L76.6913 348.714C77.9513 346.824 79.2113 345.174 80.3513 343.714C81.0013 342.884 81.6013 342.154 82.1713 341.474C83.2313 341.474 87.4713 341.334 89.3313 340.474C91.1913 339.614 93.2113 338.034 93.6513 335.964C93.7708 335.478 93.7863 334.971 93.6967 334.478C93.6071 333.985 93.4144 333.516 93.1312 333.103C92.848 332.69 92.4807 332.341 92.0534 332.079C91.626 331.817 91.1482 331.649 90.6513 331.584C87.6513 331.264 84.1213 335.354 83.0313 337.804C82.9413 338.014 81.8513 341.494 81.9013 341.494H81.9613C81.4013 342.134 80.8013 342.824 80.1613 343.594C79.0013 345.034 77.6913 346.664 76.3913 348.534C74.9868 350.554 73.7013 352.655 72.5413 354.824C71.2078 357.227 70.0901 359.744 69.2013 362.344V362.444C69.2013 361.564 69.2013 359.104 69.2013 358.914C68.8613 356.264 66.6313 351.324 63.6813 350.784C63.1884 350.706 62.6846 350.733 62.2028 350.863C61.7211 350.993 61.2721 351.223 60.8852 351.538C60.4983 351.854 60.1823 352.247 59.9576 352.692C59.7329 353.138 59.6047 353.626 59.5813 354.124C59.4113 356.234 60.9413 358.344 62.4313 359.684C64.1213 361.184 68.7913 362.634 69.1613 362.754C68.3153 365.424 67.6472 368.146 67.1613 370.904C66.8713 372.514 66.6313 374.134 66.4113 375.764C66.4113 375.004 66.4113 374.324 66.4113 374.234C66.0713 371.574 63.8413 366.644 60.8913 366.104C60.3997 366.026 59.8972 366.053 59.4167 366.182C58.9361 366.312 58.4882 366.541 58.1023 366.855C57.7163 367.17 57.401 367.562 57.1768 368.006C56.9526 368.45 56.8247 368.937 56.8013 369.434C56.5413 371.554 58.0513 373.714 59.5413 374.994C61.0313 376.274 65.0113 377.674 66.0613 377.994C65.9913 378.624 65.9013 379.244 65.8313 379.874C65.4713 382.874 65.1213 385.874 64.6913 388.874C64.5413 389.874 64.3513 390.924 64.1713 391.934C64.1713 391.264 64.1713 390.694 64.1713 390.604C63.8313 387.954 61.6013 383.014 58.6513 382.474C58.16 382.395 57.6576 382.42 57.1766 382.547C56.6956 382.675 56.2468 382.902 55.8592 383.214C55.4717 383.526 55.1541 383.916 54.927 384.359C54.7 384.802 54.5686 385.287 54.5413 385.784C54.3613 387.894 55.8913 390.004 57.3913 391.344C58.8913 392.684 62.4713 393.884 63.7213 394.284C63.5013 395.284 63.2913 396.354 63.0313 397.354C62.8413 398.024 62.7013 398.684 62.4713 399.354C62.2413 400.024 62.0413 400.674 61.8313 401.354C61.3813 402.594 60.9213 403.874 60.4513 405.074C60.1313 405.904 59.8113 406.694 59.4513 407.494C59.6113 406.494 59.8913 404.444 59.8913 404.274C59.8576 401.916 59.2207 399.606 58.0413 397.564C58.0711 397.305 58.0711 397.043 58.0413 396.784C57.9761 396.292 57.8086 395.818 57.5494 395.394C57.2902 394.97 56.945 394.605 56.5362 394.322C56.1274 394.04 55.664 393.846 55.1757 393.753C54.6874 393.66 54.1852 393.671 53.7013 393.784C50.8013 394.564 48.9613 399.654 48.8313 402.324C48.8313 402.484 48.9213 404.204 49.0013 405.324C48.8613 404.694 48.7213 404.074 48.5713 403.424C48.2613 402.144 47.9213 400.874 47.5713 399.504L46.9713 397.504C46.7813 396.834 46.5013 396.154 46.2713 395.504C45.6913 393.934 45.0413 392.374 44.3413 390.814C45.4613 390.554 49.4313 389.534 51.0313 388.314C52.6313 387.094 54.3013 385.104 54.2813 382.984C54.2955 382.486 54.2046 381.99 54.0146 381.53C53.8245 381.069 53.5396 380.653 53.1783 380.31C52.817 379.966 52.3875 379.703 51.9176 379.537C51.4477 379.37 50.9481 379.305 50.4513 379.344C47.4513 379.674 44.8813 384.424 44.3413 387.044C44.3413 387.214 44.1313 389.134 44.0513 390.194C43.6213 389.264 43.2013 388.334 42.7413 387.404C41.4113 384.714 39.9713 382.044 38.5613 379.404C38.1213 378.584 37.7013 377.764 37.2713 376.944C37.6713 376.854 42.4213 375.754 44.2113 374.374C45.7913 373.164 47.4813 371.164 47.4613 369.054C47.4755 368.556 47.3846 368.06 47.1946 367.6C47.0045 367.139 46.7196 366.723 46.3583 366.38C45.997 366.036 45.5674 365.773 45.0976 365.607C44.6277 365.44 44.1281 365.375 43.6313 365.414C40.6313 365.734 38.0613 370.494 37.5113 373.114C37.5113 373.314 37.2213 376.114 37.1913 376.794C36.2513 374.984 35.3313 373.174 34.5013 371.354C33.3493 368.854 32.3606 366.282 31.5413 363.654C31.7313 363.654 36.6913 362.484 38.5413 361.084C40.1313 359.864 41.8113 357.874 41.7913 355.754C41.8056 355.256 41.7148 354.761 41.5246 354.301C41.3345 353.841 41.0494 353.425 40.6879 353.083C40.3264 352.74 39.8967 352.478 39.4269 352.313C38.957 352.147 38.4576 352.083 37.9613 352.124C34.9613 352.444 32.3913 357.194 31.8513 359.824C31.8013 360.024 31.5413 363.004 31.5313 363.554L31.3713 363.104C30.6307 360.487 30.1221 357.81 29.8513 355.104C29.6913 353.614 29.6113 352.184 29.5713 350.784C30.5113 350.674 34.8313 350.094 36.5713 349.014C38.3113 347.934 40.1813 346.184 40.3913 344.074C40.4558 343.583 40.4166 343.084 40.2761 342.609C40.1355 342.134 39.8968 341.693 39.5754 341.316C39.254 340.939 38.857 340.634 38.4102 340.42C37.9633 340.206 37.4765 340.088 36.9813 340.074C33.9813 340.074 30.8913 344.504 30.0613 347.074C30.0113 347.214 29.7113 348.674 29.5113 349.734C29.5113 349.104 29.5113 348.454 29.5113 347.854C29.5113 345.584 29.6613 343.504 29.8013 341.664C29.8913 340.664 29.9913 339.664 30.0913 338.794C30.9613 338.204 34.4313 335.794 35.5013 334.004C36.5713 332.214 37.3913 329.824 36.6213 327.854C36.4522 327.386 36.1868 326.958 35.8421 326.599C35.4975 326.24 35.0813 325.957 34.6205 325.768C34.1597 325.58 33.6644 325.49 33.1667 325.505C32.6691 325.52 32.1801 325.639 31.7313 325.854C29.0613 327.234 28.3613 332.604 28.8013 335.244C28.8013 335.474 29.8013 338.974 29.8913 338.944H29.9513C29.8313 339.794 29.7113 340.704 29.6113 341.694C29.4213 343.534 29.2313 345.614 29.1813 347.894C29.0952 350.349 29.1553 352.807 29.3613 355.254C29.5737 357.996 30.0288 360.713 30.7213 363.374V363.464C30.2513 362.724 28.8613 360.694 28.7213 360.554C26.9713 358.554 22.3913 355.644 19.6313 356.814C19.1834 357.021 18.7837 357.32 18.458 357.691C18.1322 358.061 17.8876 358.496 17.7397 358.967C17.5919 359.438 17.5441 359.934 17.5995 360.425C17.6549 360.915 17.8122 361.388 18.0613 361.814C19.1013 363.624 21.5413 364.544 23.5413 364.834Z" fill="#263238"/>
<path d="M74.9712 350.714C74.9712 350.714 75.9712 347.214 75.9712 346.984C76.3412 344.334 75.5012 338.984 72.7912 337.684C72.3366 337.48 71.8442 337.374 71.3459 337.373C70.8475 337.372 70.3546 337.475 69.899 337.677C69.4434 337.879 69.0354 338.174 68.7015 338.544C68.3676 338.914 68.1154 339.35 67.9612 339.824C67.2412 341.824 68.1612 344.254 69.2412 345.934C70.5412 347.924 74.9712 350.714 74.9712 350.714Z" fill="#263238"/>
<path d="M163.731 383.634C164.849 383.932 166.005 384.06 167.161 384.014C167.161 384.014 166.641 382.424 166.591 382.334C166.061 381.214 164.371 379.334 163.001 379.554C162.774 379.592 162.557 379.677 162.365 379.804C162.173 379.932 162.01 380.098 161.886 380.292C161.763 380.486 161.682 380.705 161.648 380.932C161.614 381.16 161.629 381.393 161.691 381.614C161.863 382.079 162.135 382.501 162.487 382.85C162.84 383.199 163.264 383.467 163.731 383.634Z" fill="#263238"/>
<path d="M164.541 390.714C165.688 390.706 166.827 390.528 167.921 390.184C168.278 391.425 168.716 392.641 169.231 393.824C169.531 394.514 169.851 395.194 170.181 395.884C169.991 395.594 169.811 395.334 169.781 395.304C168.971 394.364 166.861 393.034 165.581 393.574C165.372 393.669 165.184 393.808 165.032 393.981C164.88 394.154 164.766 394.357 164.698 394.577C164.63 394.798 164.609 395.03 164.637 395.258C164.665 395.487 164.742 395.707 164.861 395.904C165.15 396.31 165.525 396.646 165.959 396.89C166.393 397.134 166.875 397.278 167.371 397.314C168.484 397.319 169.591 397.151 170.651 396.814C170.781 397.074 170.901 397.344 171.031 397.604C171.661 398.854 172.291 400.094 172.881 401.334C173.081 401.774 173.271 402.214 173.461 402.654C173.281 402.394 173.131 402.174 173.101 402.144C172.301 401.214 170.181 399.884 168.911 400.424C168.702 400.52 168.515 400.658 168.362 400.831C168.21 401.004 168.095 401.206 168.026 401.426C167.958 401.646 167.936 401.878 167.962 402.107C167.989 402.336 168.064 402.556 168.181 402.754C168.473 403.157 168.848 403.492 169.281 403.735C169.715 403.979 170.196 404.125 170.691 404.164C171.773 404.17 172.849 404.009 173.881 403.684C174.061 404.144 174.241 404.594 174.401 405.044C174.561 405.494 174.611 405.644 174.691 405.954C174.771 406.264 174.861 406.574 174.951 406.874C175.091 407.464 175.241 408.074 175.361 408.654C175.451 409.064 175.531 409.444 175.611 409.834C175.411 409.394 175.001 408.554 174.961 408.484C174.301 407.434 172.411 405.804 171.071 406.144C170.85 406.206 170.643 406.314 170.466 406.461C170.289 406.609 170.146 406.792 170.044 406.999C169.943 407.206 169.887 407.432 169.88 407.662C169.872 407.892 169.914 408.121 170.001 408.334C170.228 408.778 170.549 409.166 170.941 409.474C171.333 409.781 171.787 410 172.271 410.114C173.395 410.284 174.538 410.284 175.661 410.114C175.791 410.754 175.911 411.384 176.021 411.974C176.071 412.294 176.121 412.584 176.171 412.884H177.021C176.961 412.544 176.901 412.194 176.821 411.824C176.691 411.174 176.541 410.474 176.381 409.764C177.03 409.501 177.664 409.204 178.281 408.874C179.118 409.587 180.047 410.186 181.041 410.654C180.791 411.264 180.541 411.844 180.301 412.404L180.091 412.884H180.991C180.991 412.824 181.041 412.774 181.061 412.724C181.311 412.104 181.571 411.444 181.831 410.724C182.941 410.987 184.085 411.075 185.221 410.984C185.712 410.908 186.181 410.726 186.594 410.449C187.007 410.173 187.354 409.809 187.611 409.384C187.714 409.179 187.772 408.954 187.782 408.724C187.792 408.495 187.753 408.266 187.668 408.053C187.583 407.839 187.454 407.646 187.289 407.486C187.124 407.326 186.927 407.203 186.711 407.124C185.391 406.674 183.391 408.174 182.711 409.124C182.661 409.184 182.261 409.874 182.021 410.314C182.121 410.034 182.231 409.764 182.331 409.474C182.541 408.904 182.731 408.324 182.941 407.704C183.031 407.404 183.131 407.094 183.221 406.784C183.311 406.474 183.381 406.154 183.461 405.784C183.641 405.034 183.791 404.264 183.921 403.484C184.948 403.892 186.03 404.141 187.131 404.224C187.629 404.222 188.12 404.112 188.571 403.902C189.021 403.691 189.421 403.385 189.741 403.004C189.874 402.816 189.965 402.601 190.01 402.375C190.054 402.149 190.05 401.916 189.998 401.691C189.946 401.467 189.847 401.256 189.708 401.072C189.569 400.888 189.393 400.735 189.191 400.624C187.961 399.994 185.751 401.164 184.871 402.034C184.821 402.084 184.261 402.784 183.961 403.174C184.041 402.701 184.111 402.231 184.171 401.764C184.341 400.384 184.471 398.994 184.611 397.604C184.611 397.174 184.691 396.754 184.741 396.324C185.802 396.75 186.922 397.013 188.061 397.104C188.559 397.104 189.051 396.995 189.502 396.784C189.953 396.574 190.352 396.266 190.671 395.884C190.804 395.696 190.895 395.481 190.94 395.255C190.984 395.029 190.98 394.796 190.928 394.571C190.876 394.347 190.777 394.136 190.638 393.952C190.499 393.768 190.323 393.615 190.121 393.504C188.891 392.874 186.681 394.044 185.811 394.914C185.741 394.984 184.941 395.984 184.751 396.254C184.841 395.314 184.951 394.384 185.091 393.464C185.282 392.232 185.549 391.013 185.891 389.814C186.96 390.239 188.085 390.502 189.231 390.594C189.729 390.595 190.221 390.486 190.672 390.275C191.124 390.064 191.523 389.757 191.841 389.374C191.974 389.186 192.065 388.971 192.11 388.745C192.154 388.519 192.15 388.286 192.098 388.061C192.046 387.837 191.947 387.626 191.808 387.442C191.669 387.258 191.493 387.105 191.291 386.994C190.061 386.364 187.861 387.534 186.981 388.404C186.911 388.474 186.051 389.554 185.911 389.764C185.911 389.694 185.911 389.614 185.961 389.544C186.344 388.351 186.829 387.193 187.411 386.084C187.731 385.474 188.061 384.904 188.411 384.354C189.403 384.88 190.469 385.254 191.571 385.464C192.067 385.519 192.568 385.465 193.04 385.304C193.512 385.143 193.943 384.88 194.301 384.534C194.455 384.363 194.57 384.16 194.639 383.941C194.709 383.722 194.731 383.49 194.705 383.261C194.678 383.033 194.604 382.812 194.486 382.615C194.368 382.417 194.21 382.246 194.021 382.114C192.861 381.344 190.541 382.264 189.571 383.034L188.681 383.924L189.151 383.194C189.731 382.314 190.321 381.554 190.841 380.884C191.141 380.504 191.421 380.164 191.681 379.884C192.802 379.895 193.918 379.737 194.991 379.414C195.456 379.233 195.875 378.953 196.22 378.594C196.565 378.235 196.829 377.805 196.991 377.334C197.044 377.112 197.049 376.882 197.007 376.657C196.965 376.433 196.877 376.22 196.748 376.032C196.619 375.844 196.452 375.684 196.258 375.564C196.064 375.444 195.847 375.366 195.621 375.334C194.241 375.184 192.621 377.074 192.101 378.204C192.101 378.304 191.551 379.904 191.581 379.904C191.321 380.204 191.041 380.524 190.751 380.904C190.211 381.564 189.611 382.324 189.011 383.184C188.347 384.104 187.742 385.066 187.201 386.064C186.581 387.17 186.065 388.332 185.661 389.534C185.661 389.134 185.661 387.994 185.661 387.914C185.501 386.684 184.481 384.404 183.111 384.154C182.884 384.119 182.652 384.132 182.43 384.192C182.208 384.252 182.002 384.358 181.823 384.503C181.645 384.649 181.5 384.83 181.396 385.035C181.292 385.24 181.233 385.465 181.221 385.694C181.241 386.193 181.37 386.681 181.598 387.125C181.826 387.569 182.148 387.958 182.541 388.264C183.503 388.887 184.551 389.365 185.651 389.684C185.258 390.915 184.951 392.171 184.731 393.444C184.601 394.184 184.491 394.934 184.391 395.684C184.391 395.334 184.391 395.024 184.391 394.984C184.231 393.754 183.211 391.474 181.841 391.224C181.614 391.189 181.382 391.202 181.16 391.262C180.938 391.322 180.732 391.428 180.553 391.573C180.375 391.719 180.23 391.9 180.126 392.105C180.022 392.31 179.963 392.535 179.951 392.764C179.971 393.263 180.1 393.751 180.328 394.195C180.556 394.639 180.878 395.028 181.271 395.334C182.197 395.943 183.208 396.411 184.271 396.724C184.271 397.014 184.201 397.304 184.161 397.594C184.001 398.984 183.841 400.364 183.641 401.724C183.571 402.204 183.481 402.674 183.401 403.134C183.401 402.824 183.401 402.564 183.401 402.524C183.241 401.294 182.211 399.024 180.851 398.774C180.624 398.737 180.391 398.749 180.169 398.808C179.946 398.868 179.739 398.974 179.56 399.12C179.382 399.265 179.236 399.447 179.133 399.653C179.03 399.859 178.971 400.084 178.961 400.314C178.981 400.811 179.11 401.298 179.338 401.74C179.566 402.183 179.888 402.57 180.281 402.874C181.176 403.481 182.162 403.94 183.201 404.234C183.101 404.714 183.001 405.234 182.881 405.654C182.791 405.964 182.731 406.264 182.621 406.574C182.511 406.884 182.431 407.184 182.331 407.484C182.121 408.054 181.911 408.644 181.691 409.204C181.541 409.584 181.401 409.954 181.251 410.324C181.321 409.844 181.451 408.914 181.451 408.834C181.437 407.745 181.145 406.678 180.601 405.734C180.601 405.614 180.601 405.494 180.601 405.374C180.572 405.146 180.496 404.927 180.377 404.731C180.258 404.535 180.099 404.366 179.91 404.235C179.722 404.104 179.508 404.014 179.283 403.97C179.057 403.927 178.825 403.932 178.601 403.984C177.261 404.344 176.411 406.694 176.351 407.924C176.351 407.994 176.401 408.794 176.431 409.294C176.371 409.004 176.301 408.714 176.231 408.424C176.091 407.824 175.931 407.244 175.771 406.614C175.671 406.304 175.581 406.004 175.491 405.694C175.401 405.384 175.271 405.074 175.171 404.754C174.901 404.034 174.601 403.314 174.281 402.594C175.363 402.372 176.402 401.98 177.361 401.434C177.777 401.159 178.127 400.796 178.388 400.371C178.649 399.946 178.814 399.469 178.871 398.974C178.876 398.745 178.833 398.517 178.745 398.306C178.656 398.094 178.524 397.904 178.357 397.746C178.19 397.589 177.993 397.468 177.776 397.392C177.56 397.316 177.33 397.286 177.101 397.304C175.721 397.454 174.521 399.644 174.271 400.854C174.271 400.934 174.181 401.854 174.141 402.304C173.941 401.874 173.751 401.444 173.541 401.014C172.921 399.774 172.261 398.544 171.611 397.304L171.011 396.174C172.132 395.941 173.211 395.54 174.211 394.984C174.627 394.709 174.977 394.346 175.238 393.921C175.499 393.496 175.664 393.019 175.721 392.524C175.726 392.295 175.683 392.067 175.595 391.856C175.506 391.644 175.374 391.454 175.207 391.296C175.04 391.139 174.843 391.018 174.626 390.942C174.41 390.866 174.18 390.836 173.951 390.854C172.571 391.004 171.371 393.194 171.121 394.404C171.121 394.494 170.991 395.774 170.981 396.104C170.541 395.264 170.121 394.434 169.731 393.594C169.206 392.458 168.755 391.289 168.381 390.094C169.508 389.866 170.594 389.468 171.601 388.914C172.014 388.635 172.361 388.271 172.622 387.847C172.882 387.423 173.049 386.948 173.111 386.454C173.118 386.223 173.075 385.993 172.987 385.78C172.898 385.566 172.766 385.374 172.598 385.216C172.43 385.057 172.23 384.936 172.012 384.86C171.794 384.783 171.562 384.754 171.331 384.774C169.961 384.924 168.761 387.114 168.511 388.324C168.511 388.424 168.371 389.804 168.371 390.054C168.34 389.986 168.314 389.916 168.291 389.844C167.953 388.637 167.719 387.402 167.591 386.154C167.521 385.464 167.481 384.804 167.461 384.154C168.58 384.046 169.676 383.77 170.711 383.334C171.154 383.105 171.541 382.783 171.847 382.389C172.153 381.995 172.369 381.54 172.481 381.054C172.512 380.826 172.495 380.594 172.43 380.373C172.366 380.152 172.255 379.947 172.106 379.772C171.957 379.596 171.773 379.454 171.565 379.355C171.358 379.255 171.132 379.201 170.901 379.194C169.521 379.194 168.091 381.194 167.711 382.414C167.711 382.484 167.551 383.154 167.451 383.644C167.451 383.354 167.451 383.054 167.451 382.774C167.451 381.724 167.521 380.774 167.581 379.924C167.581 379.434 167.671 379.004 167.721 378.594C168.659 377.989 169.499 377.244 170.211 376.384C170.501 375.978 170.698 375.513 170.788 375.022C170.878 374.531 170.858 374.027 170.731 373.544C170.653 373.328 170.531 373.13 170.372 372.964C170.212 372.797 170.02 372.666 169.807 372.579C169.595 372.491 169.366 372.449 169.136 372.455C168.906 372.461 168.679 372.515 168.471 372.614C167.241 373.254 166.921 375.734 167.121 376.954C167.121 377.054 167.611 378.674 167.631 378.654C167.581 379.044 167.521 379.464 167.471 379.924C167.391 380.774 167.301 381.734 167.281 382.784C167.24 383.915 167.267 385.047 167.361 386.174C167.46 387.44 167.671 388.695 167.991 389.924C167.771 389.584 167.131 388.654 167.081 388.584C166.271 387.644 164.151 386.314 162.881 386.854C162.672 386.95 162.485 387.088 162.332 387.261C162.18 387.434 162.065 387.637 161.996 387.856C161.928 388.076 161.906 388.308 161.932 388.537C161.959 388.766 162.034 388.986 162.151 389.184C162.419 389.594 162.77 389.943 163.182 390.206C163.594 390.47 164.057 390.643 164.541 390.714Z" fill="#263238"/>
<path d="M188.321 384.174C188.321 384.174 188.771 382.554 188.781 382.454C188.951 381.224 188.561 378.764 187.311 378.154C187.101 378.062 186.873 378.015 186.643 378.016C186.412 378.017 186.185 378.066 185.975 378.16C185.765 378.254 185.577 378.392 185.423 378.563C185.269 378.734 185.153 378.935 185.081 379.154C184.97 379.639 184.965 380.142 185.067 380.629C185.169 381.116 185.375 381.575 185.671 381.974C186.442 382.833 187.335 383.574 188.321 384.174Z" fill="#263238"/>
<path d="M342.161 55.6443H190.161C190.044 55.6458 189.93 55.6053 189.84 55.5301C189.75 55.4549 189.69 55.3499 189.671 55.2343C189.648 55.1206 189.666 55.0027 189.72 54.9005C189.775 54.7984 189.864 54.7184 189.971 54.6743C195.181 52.5943 205.481 48.1943 207.221 46.4543C207.895 45.6342 208.466 44.7341 208.921 43.7743C210.841 40.2143 213.751 34.7743 221.791 31.9543C227.701 29.8443 232.041 31.1843 234.921 32.0643C237.531 32.8743 238.391 33.0643 238.921 31.5143C240.041 28.1643 242.361 21.1943 248.581 17.5143C248.637 17.4804 248.699 17.4582 248.764 17.449C248.829 17.4397 248.895 17.4436 248.959 17.4604C249.022 17.4772 249.082 17.5065 249.134 17.5467C249.185 17.5869 249.229 17.6371 249.261 17.6943C249.327 17.81 249.345 17.947 249.311 18.076C249.278 18.2049 249.195 18.3156 249.081 18.3843C243.191 21.8243 240.951 28.5543 239.871 31.7843C239.021 34.3243 237.091 33.7843 234.651 32.9843C231.731 32.0843 227.741 30.8643 222.151 32.8543C214.471 35.5943 211.671 40.7843 209.821 44.2143C209.328 45.262 208.699 46.2404 207.951 47.1243C206.171 48.9043 197.111 52.7843 192.731 54.6043H342.131C342.263 54.6043 342.391 54.657 342.484 54.7507C342.578 54.8445 342.631 54.9717 342.631 55.1043C342.636 55.1708 342.628 55.2377 342.607 55.3011C342.587 55.3644 342.553 55.423 342.51 55.4733C342.466 55.5237 342.412 55.5647 342.352 55.5941C342.293 55.6234 342.227 55.6405 342.161 55.6443Z" fill="#263238"/>
<path d="M368.141 55.6443H349.731C349.599 55.6417 349.473 55.5882 349.38 55.495C349.287 55.4018 349.233 55.2761 349.231 55.1443C349.231 55.0117 349.284 54.8845 349.377 54.7907C349.471 54.697 349.598 54.6443 349.731 54.6443H367.731C368.131 52.0443 369.981 37.8043 363.981 30.4743C360.981 26.8643 356.461 27.3043 351.621 27.7843C345.921 28.3443 340.031 28.9243 337.421 22.0643C336.651 20.9743 323.361 2.56429 307.531 1.12429C293.231 -0.175707 286.321 9.35429 281.271 16.3043C280.551 17.3043 279.861 18.2543 279.201 19.1043C276.071 23.1043 273.541 21.7543 270.041 19.8643C267.041 18.2643 263.391 16.2643 257.611 16.2643C257.478 16.2643 257.351 16.2116 257.257 16.1178C257.164 16.0241 257.111 15.8969 257.111 15.7643C257.111 15.6317 257.164 15.5045 257.257 15.4107C257.351 15.317 257.478 15.2643 257.611 15.2643C262.178 15.311 266.647 16.5968 270.541 18.9843C273.961 20.8243 275.831 21.8443 278.441 18.4943C279.101 17.6443 279.781 16.7143 280.501 15.7243C285.681 8.56429 292.781 -1.21571 307.651 0.124293C324.351 1.64429 338.171 21.3443 338.311 21.5443C338.316 21.5808 338.316 21.6178 338.311 21.6543C340.641 27.8543 345.921 27.3343 351.501 26.7843C356.391 26.3043 361.441 25.7843 364.731 29.8343C371.621 38.2443 368.731 54.5443 368.621 55.2343C368.6 55.3474 368.541 55.4499 368.454 55.5246C368.366 55.5993 368.256 55.6416 368.141 55.6443Z" fill="#263238"/>
<path d="M273.541 48.8244H273.481C273.35 48.8093 273.23 48.743 273.148 48.64C273.065 48.537 273.027 48.4055 273.041 48.2744C273.457 45.5994 274.747 43.1377 276.711 41.2744C276.757 41.2275 276.813 41.1903 276.874 41.1649C276.935 41.1395 277 41.1265 277.066 41.1265C277.132 41.1265 277.197 41.1395 277.258 41.1649C277.319 41.1903 277.374 41.2275 277.421 41.2744C277.513 41.3695 277.565 41.4968 277.565 41.6294C277.565 41.7619 277.513 41.8892 277.421 41.9844C275.643 43.7015 274.465 45.9456 274.061 48.3844C274.046 48.5098 273.984 48.625 273.887 48.7066C273.791 48.7882 273.667 48.8303 273.541 48.8244Z" fill="#263238"/>
<path d="M294.481 40.7144C292.859 40.6467 291.25 40.4019 289.681 39.9844C286.961 39.3644 284.151 38.7344 281.231 39.7044C281.168 39.7262 281.101 39.7353 281.035 39.7309C280.968 39.7266 280.903 39.709 280.844 39.6792C280.784 39.6494 280.731 39.6079 280.687 39.5573C280.644 39.5067 280.611 39.4479 280.591 39.3844C280.553 39.2584 280.565 39.1224 280.624 39.005C280.684 38.8876 280.787 38.7978 280.911 38.7544C284.101 37.6944 287.051 38.3644 289.911 39.0044C293.281 39.7744 296.201 40.4344 298.911 38.0944C300.781 36.4844 301.351 33.4644 301.961 30.2644C302.961 24.8844 304.151 18.7844 312.071 18.2644C324.261 17.5044 334.731 27.8144 335.171 28.2644C335.218 28.3109 335.255 28.3662 335.28 28.4271C335.306 28.488 335.319 28.5534 335.319 28.6194C335.319 28.6854 335.306 28.7508 335.28 28.8117C335.255 28.8726 335.218 28.9279 335.171 28.9744C335.076 29.0666 334.948 29.1182 334.816 29.1182C334.683 29.1182 334.556 29.0666 334.461 28.9744C334.361 28.8744 323.871 18.5444 312.131 19.2744C304.991 19.7244 303.951 25.1744 302.951 30.4444C302.301 33.8244 301.691 37.0144 299.561 38.8444C298.162 40.0835 296.349 40.751 294.481 40.7144Z" fill="#263238"/>
<path d="M157.941 90.0542H58.6608C58.5435 90.0558 58.4297 90.0153 58.3398 89.94C58.2498 89.8648 58.1899 89.7598 58.1708 89.6442C58.1481 89.5305 58.1657 89.4126 58.2204 89.3104C58.2751 89.2083 58.3636 89.1283 58.4708 89.0842C61.2008 87.9942 68.5408 84.9142 69.6808 83.7142C70.1117 83.1922 70.4746 82.6176 70.7608 82.0042C72.0308 79.6542 73.9608 76.0942 79.2708 74.2042C82.0838 73.1945 85.1644 73.2193 87.9608 74.2742C89.7908 74.8342 90.0808 74.8042 90.3408 74.0142C91.0808 71.8142 92.6108 67.2142 96.7308 64.8042C96.8455 64.7411 96.9802 64.7247 97.1068 64.7582C97.2333 64.7917 97.3422 64.8726 97.4108 64.9842C97.4769 65.0999 97.495 65.2369 97.4614 65.3659C97.4278 65.4948 97.345 65.6055 97.2308 65.6742C93.4408 67.8842 91.9908 72.2442 91.2908 74.3342C90.6808 76.1542 89.2208 75.7042 87.6608 75.2242C85.0707 74.2314 82.21 74.203 79.6008 75.1442C77.8397 75.7621 76.2226 76.7314 74.8474 77.9931C73.4722 79.2548 72.3677 80.7827 71.6008 82.4842C71.2747 83.1849 70.8541 83.8377 70.3508 84.4242C69.2608 85.5142 64.2308 87.7242 61.1608 89.0142H157.941C158.073 89.0142 158.201 89.0669 158.294 89.1606C158.388 89.2544 158.441 89.3816 158.441 89.5142C158.445 89.5828 158.435 89.6515 158.412 89.7162C158.389 89.781 158.353 89.8403 158.306 89.8908C158.259 89.9412 158.203 89.9817 158.14 90.0098C158.077 90.0378 158.009 90.053 157.941 90.0542Z" fill="#263238"/>
<path d="M174.911 90.0544H162.911C162.779 90.0518 162.653 89.9983 162.56 89.9051C162.467 89.8119 162.413 89.6862 162.411 89.5544C162.411 89.4218 162.463 89.2946 162.557 89.2009C162.651 89.1071 162.778 89.0544 162.911 89.0544H174.511C174.811 87.0544 175.851 78.1544 172.081 73.5444C170.211 71.2544 167.271 71.5444 164.151 71.8544C160.371 72.2244 156.461 72.6044 154.711 68.0244C154.101 67.1644 145.511 55.3544 135.321 54.4344C126.081 53.5944 121.591 59.7744 118.321 64.2844C117.851 64.9344 117.401 65.5544 116.961 66.1144C114.831 68.8544 113.031 67.8844 110.761 66.6544C108.353 65.17 105.589 64.3649 102.761 64.3244C102.628 64.3244 102.501 64.2717 102.407 64.178C102.313 64.0842 102.261 63.957 102.261 63.8244C102.261 63.6918 102.313 63.5646 102.407 63.4708C102.501 63.3771 102.628 63.3244 102.761 63.3244C105.766 63.3599 108.706 64.2063 111.271 65.7744C113.561 67.0144 114.601 67.5744 116.211 65.5044C116.641 64.9544 117.081 64.3444 117.551 63.6944C120.961 58.9944 125.631 52.5444 135.451 53.4344C146.451 54.4344 155.241 66.9644 155.601 67.5044C155.63 67.5351 155.651 67.5731 155.661 67.6144C157.131 71.5344 160.361 71.2244 164.101 70.8544C167.341 70.5344 170.681 70.2044 172.891 72.9144C177.441 78.4644 175.551 89.1844 175.471 89.6444C175.449 89.7719 175.378 89.8859 175.273 89.9624C175.169 90.0389 175.039 90.0718 174.911 90.0544Z" fill="#263238"/>
<path d="M113.081 85.5942H113.021C112.89 85.5791 112.77 85.5128 112.688 85.4098C112.605 85.3068 112.567 85.1754 112.581 85.0442C112.855 83.2524 113.717 81.6025 115.031 80.3542C115.077 80.3073 115.133 80.2701 115.194 80.2448C115.255 80.2194 115.32 80.2063 115.386 80.2063C115.452 80.2063 115.517 80.2194 115.578 80.2448C115.639 80.2701 115.694 80.3073 115.741 80.3542C115.833 80.4493 115.885 80.5767 115.885 80.7092C115.885 80.8417 115.833 80.969 115.741 81.0642C114.582 82.1517 113.81 83.5877 113.541 85.1542C113.529 85.2703 113.476 85.3784 113.392 85.4591C113.308 85.5397 113.197 85.5876 113.081 85.5942Z" fill="#263238"/>
<path d="M126.771 80.3044C125.703 80.2621 124.643 80.1012 123.611 79.8244C121.855 79.2505 119.973 79.1847 118.181 79.6344C118.117 79.6649 118.048 79.6816 117.977 79.6833C117.906 79.685 117.836 79.6718 117.771 79.6444C117.706 79.617 117.647 79.5761 117.599 79.5244C117.551 79.4728 117.514 79.4115 117.492 79.3446C117.469 79.2777 117.46 79.2067 117.467 79.1364C117.474 79.0661 117.495 78.9979 117.53 78.9365C117.565 78.8751 117.613 78.8217 117.67 78.78C117.727 78.7383 117.792 78.7091 117.861 78.6944C119.834 78.1726 121.916 78.2247 123.861 78.8444C126.021 79.3344 127.861 79.7644 129.601 78.2844C130.781 77.2844 131.151 75.3344 131.541 73.2844C132.221 69.7044 132.991 65.6544 138.301 65.2844C146.361 64.7744 153.241 71.5744 153.531 71.8644C153.577 71.911 153.614 71.9663 153.64 72.0273C153.665 72.0882 153.678 72.1535 153.678 72.2194C153.678 72.2853 153.665 72.3506 153.64 72.4115C153.614 72.4724 153.577 72.5278 153.531 72.5744C153.484 72.621 153.429 72.658 153.368 72.6832C153.307 72.7084 153.242 72.7214 153.176 72.7214C153.11 72.7214 153.045 72.7084 152.984 72.6832C152.923 72.658 152.867 72.621 152.821 72.5744C152.751 72.5044 145.951 65.8144 138.371 66.2844C133.831 66.5744 133.201 69.9044 132.521 73.4444C132.101 75.6744 131.691 77.7944 130.251 79.0244C129.294 79.8751 128.051 80.3324 126.771 80.3044Z" fill="#263238"/>
<path d="M341.631 122.564H272.401C272.268 122.589 272.131 122.561 272.019 122.485C271.908 122.409 271.831 122.292 271.806 122.159C271.781 122.027 271.809 121.889 271.885 121.778C271.961 121.666 272.078 121.589 272.211 121.564C274.841 120.564 279.281 118.564 279.981 117.884C280.266 117.525 280.511 117.136 280.711 116.724C281.284 115.446 282.112 114.299 283.144 113.351C284.175 112.404 285.389 111.677 286.711 111.214C288.696 110.483 290.876 110.483 292.861 111.214C294.181 111.624 294.201 111.534 294.341 111.134C294.861 109.584 295.941 106.334 298.861 104.634C298.917 104.593 298.982 104.564 299.05 104.55C299.119 104.535 299.19 104.535 299.258 104.549C299.326 104.564 299.391 104.592 299.448 104.633C299.505 104.674 299.552 104.727 299.587 104.787C299.622 104.848 299.644 104.915 299.652 104.984C299.66 105.054 299.652 105.124 299.631 105.191C299.61 105.258 299.575 105.319 299.528 105.371C299.482 105.424 299.425 105.465 299.361 105.494C296.771 107.014 295.771 110.014 295.291 111.494C294.811 112.974 293.621 112.494 292.571 112.214C290.798 111.533 288.838 111.512 287.051 112.154C285.849 112.576 284.745 113.236 283.805 114.096C282.865 114.955 282.109 115.995 281.581 117.154C281.343 117.655 281.041 118.122 280.681 118.544C279.981 119.244 277.051 120.544 274.901 121.494H341.621C341.753 121.494 341.881 121.547 341.974 121.641C342.068 121.734 342.121 121.862 342.121 121.994C342.131 122.065 342.126 122.136 342.106 122.205C342.086 122.273 342.051 122.336 342.005 122.39C341.959 122.444 341.901 122.488 341.837 122.518C341.772 122.548 341.702 122.563 341.631 122.564Z" fill="#263238"/>
<path d="M353.471 122.564H345.081C344.948 122.564 344.821 122.512 344.727 122.418C344.633 122.324 344.581 122.197 344.581 122.064C344.581 121.932 344.633 121.804 344.727 121.711C344.821 121.617 344.948 121.564 345.081 121.564H353.081C353.301 119.954 353.921 114.074 351.391 110.994C350.141 109.464 348.131 109.654 346.001 109.864C343.441 110.114 340.531 110.404 339.261 107.114C338.761 106.424 332.851 98.3543 325.861 97.7243C319.491 97.1343 316.411 101.414 314.151 104.524C313.811 104.984 313.501 105.414 313.151 105.804C311.591 107.804 310.221 107.084 308.641 106.224C306.973 105.2 305.058 104.647 303.101 104.624C302.968 104.624 302.841 104.572 302.747 104.478C302.653 104.384 302.601 104.257 302.601 104.124C302.601 103.992 302.653 103.864 302.747 103.771C302.841 103.677 302.968 103.624 303.101 103.624C305.219 103.646 307.292 104.24 309.101 105.344C310.661 106.194 311.311 106.534 312.361 105.194C312.651 104.814 312.961 104.384 313.291 103.934C315.691 100.624 318.981 96.0943 325.901 96.7243C333.641 97.4243 339.811 106.224 340.071 106.594C340.074 106.631 340.074 106.668 340.071 106.704C341.071 109.334 343.261 109.124 345.801 108.874C347.991 108.654 350.471 108.414 352.071 110.354C355.281 114.284 353.961 121.834 353.901 122.144C353.883 122.251 353.831 122.349 353.754 122.424C353.677 122.5 353.577 122.549 353.471 122.564Z" fill="#263238"/>
<path d="M310.351 119.454H310.291C310.16 119.439 310.04 119.373 309.958 119.27C309.875 119.167 309.837 119.035 309.851 118.904C310.048 117.617 310.667 116.432 311.611 115.534C311.657 115.488 311.711 115.451 311.771 115.425C311.831 115.4 311.896 115.387 311.961 115.387C312.026 115.387 312.091 115.4 312.151 115.425C312.211 115.451 312.265 115.488 312.311 115.534C312.358 115.581 312.395 115.636 312.42 115.697C312.446 115.758 312.459 115.823 312.459 115.889C312.459 115.955 312.446 116.021 312.42 116.082C312.395 116.143 312.358 116.198 312.311 116.244C311.541 116.978 311.032 117.944 310.861 118.994C310.851 119.122 310.792 119.24 310.697 119.326C310.603 119.411 310.479 119.457 310.351 119.454Z" fill="#263238"/>
<path d="M319.901 115.764C319.144 115.735 318.392 115.621 317.661 115.424C316.46 115.037 315.177 114.989 313.951 115.284C313.826 115.325 313.69 115.315 313.573 115.256C313.456 115.197 313.367 115.094 313.326 114.969C313.285 114.845 313.295 114.709 313.354 114.592C313.413 114.474 313.516 114.385 313.641 114.344C315.035 113.973 316.506 114.008 317.881 114.444C319.401 114.794 320.611 115.064 321.751 114.094C322.531 113.424 322.751 112.094 323.051 110.684C323.511 108.254 324.051 105.244 327.911 105.004C333.591 104.634 338.441 109.424 338.641 109.634C338.689 109.679 338.727 109.733 338.753 109.794C338.779 109.854 338.792 109.919 338.792 109.984C338.792 110.05 338.779 110.115 338.753 110.175C338.727 110.235 338.689 110.289 338.641 110.334C338.594 110.381 338.539 110.418 338.478 110.444C338.417 110.469 338.352 110.482 338.286 110.482C338.22 110.482 338.154 110.469 338.093 110.444C338.032 110.418 337.977 110.381 337.931 110.334C337.931 110.334 333.191 105.664 327.931 105.994C324.931 106.184 324.451 108.454 323.991 110.854C323.691 112.444 323.411 113.944 322.361 114.854C321.68 115.449 320.805 115.773 319.901 115.764Z" fill="#263238"/>
<path d="M128.131 322.615V280.915H77.4214V256.185L121.641 152.865H155.381V257.865H172.771V280.915H155.381V322.615H128.131ZM101.731 257.855H128.131V184.085L101.731 257.855Z" fill="#263238"/>
<path d="M155.381 323.114H128.131C127.999 323.114 127.872 323.062 127.778 322.968C127.684 322.874 127.631 322.747 127.631 322.614V281.414H77.4214C77.2888 281.414 77.1616 281.362 77.0679 281.268C76.9741 281.174 76.9214 281.047 76.9214 280.914V256.184C76.9064 256.118 76.9064 256.05 76.9214 255.984L121.181 152.714C121.221 152.626 121.286 152.55 121.368 152.497C121.449 152.444 121.544 152.415 121.641 152.414H155.381C155.514 152.414 155.641 152.467 155.735 152.561C155.829 152.655 155.881 152.782 155.881 152.914V257.354H172.771C172.904 257.354 173.031 257.407 173.125 257.501C173.219 257.595 173.271 257.722 173.271 257.854V280.914C173.271 281.047 173.219 281.174 173.125 281.268C173.031 281.362 172.904 281.414 172.771 281.414H155.881V322.614C155.881 322.747 155.829 322.874 155.735 322.968C155.641 323.062 155.514 323.114 155.381 323.114ZM128.631 322.114H154.881V280.914C154.881 280.782 154.934 280.655 155.028 280.561C155.122 280.467 155.249 280.414 155.381 280.414H172.271V258.354H155.381C155.249 258.354 155.122 258.302 155.028 258.208C154.934 258.114 154.881 257.987 154.881 257.854V153.364H121.971L77.9214 256.284V280.414H128.131C128.264 280.414 128.391 280.467 128.485 280.561C128.579 280.655 128.631 280.782 128.631 280.914V322.114ZM128.131 258.354H101.731C101.651 258.357 101.571 258.34 101.499 258.303C101.427 258.266 101.366 258.212 101.321 258.144C101.273 258.081 101.243 258.006 101.232 257.927C101.222 257.848 101.232 257.768 101.261 257.694L127.661 183.924C127.702 183.813 127.78 183.719 127.882 183.659C127.984 183.598 128.104 183.576 128.221 183.594C128.337 183.613 128.442 183.673 128.517 183.763C128.592 183.853 128.633 183.967 128.631 184.084V257.854C128.631 257.987 128.579 258.114 128.485 258.208C128.391 258.302 128.264 258.354 128.131 258.354ZM102.441 257.354H127.631V186.964L102.441 257.354Z" fill="#263238"/>
<path d="M232.291 325.134C222.371 325.134 214.165 323.038 207.671 318.844C201.158 314.638 196.05 308.583 193.001 301.454C189.708 294.041 188.065 285.518 188.071 275.884V200.644C188.071 190.724 189.645 182.028 192.791 174.554C195.692 167.37 200.743 161.258 207.251 157.054C213.751 152.868 222.085 150.771 232.251 150.764C242.418 150.758 250.768 152.854 257.301 157.054C263.81 161.258 268.861 167.37 271.761 174.554C274.948 181.994 276.541 190.691 276.541 200.644V275.884C276.541 285.524 274.901 294.048 271.621 301.454C268.568 308.58 263.461 314.635 256.951 318.844C250.431 323.038 242.211 325.134 232.291 325.134ZM232.291 300.194C236.625 300.194 239.838 298.861 241.931 296.194C244.098 293.373 245.54 290.063 246.131 286.554C246.799 282.889 247.134 279.17 247.131 275.444V201.044C247.134 197.149 246.82 193.259 246.191 189.414C245.691 185.889 244.296 182.549 242.141 179.714C240.048 177.048 236.765 175.714 232.291 175.714C227.818 175.714 224.535 177.048 222.441 179.714C220.272 182.563 218.868 185.92 218.361 189.464C217.729 193.309 217.412 197.198 217.411 201.094V275.494C217.416 279.216 217.795 282.928 218.541 286.574C219.189 290.082 220.659 293.385 222.831 296.214C224.951 298.868 228.105 300.194 232.291 300.194Z" fill="#263238"/>
<path d="M232.292 325.634C222.292 325.634 213.952 323.494 207.402 319.264C200.81 315 195.637 308.87 192.542 301.654C189.242 294.224 187.542 285.554 187.542 275.884V200.644C187.542 190.704 189.141 181.864 192.301 174.354C195.255 167.087 200.369 160.902 206.952 156.634C213.502 152.404 222.012 150.264 232.262 150.264C242.512 150.264 251.031 152.404 257.581 156.634C264.166 160.899 269.28 167.085 272.232 174.354C275.392 181.864 276.982 190.704 276.982 200.644V275.884C277.129 284.729 275.426 293.507 271.982 301.654C268.883 308.867 263.71 314.997 257.122 319.264C250.642 323.494 242.262 325.634 232.292 325.634ZM232.292 151.264C222.242 151.264 213.902 153.354 207.521 157.474C201.111 161.624 196.13 167.642 193.252 174.714C190.152 182.094 188.572 190.814 188.572 200.614V275.854C188.411 284.557 190.077 293.196 193.462 301.214C196.476 308.251 201.516 314.232 207.941 318.394C214.331 322.514 222.522 324.604 232.292 324.604C242.062 324.604 250.292 322.514 256.652 318.394C263.072 314.227 268.111 308.248 271.132 301.214C274.511 293.195 276.173 284.556 276.012 275.854V200.644C276.012 190.834 274.442 182.124 271.342 174.744C268.468 167.661 263.487 161.631 257.072 157.474C250.682 153.354 242.352 151.264 232.292 151.264ZM232.292 300.694C227.962 300.694 224.661 299.294 222.471 296.524C220.248 293.635 218.744 290.259 218.081 286.674C217.314 282.987 216.922 279.231 216.911 275.464V201.064C216.912 197.142 217.23 193.226 217.862 189.354C218.379 185.717 219.822 182.274 222.051 179.354C224.241 176.584 227.682 175.184 232.292 175.184C236.902 175.184 240.352 176.584 242.542 179.354C244.768 182.275 246.207 185.718 246.721 189.354C247.353 193.226 247.671 197.142 247.672 201.064V275.464C247.679 279.22 247.344 282.969 246.672 286.664C246.065 290.251 244.592 293.636 242.382 296.524C240.141 299.294 236.772 300.714 232.292 300.714V300.694ZM232.292 176.204C228.012 176.204 224.822 177.484 222.842 179.994C220.714 182.772 219.336 186.051 218.842 189.514C218.218 193.333 217.904 197.195 217.902 201.064V275.464C217.915 279.16 218.301 282.846 219.051 286.464C219.687 289.894 221.123 293.124 223.242 295.894C225.242 298.404 228.242 299.684 232.242 299.684C236.242 299.684 239.512 298.404 241.492 295.894C243.606 293.137 245.01 289.902 245.581 286.474C246.248 282.846 246.583 279.164 246.581 275.474V201.074C246.582 197.206 246.271 193.343 245.652 189.524C245.152 186.062 243.775 182.784 241.652 180.004C239.762 177.484 236.542 176.204 232.292 176.204Z" fill="#263238"/>
<path d="M345.671 322.615V280.915H294.961V256.185L339.181 152.865H372.921V257.865H390.311V280.915H372.921V322.615H345.671ZM319.271 257.855H345.671V184.085L319.271 257.855Z" fill="#263238"/>
<path d="M372.921 323.114H345.671C345.539 323.114 345.412 323.062 345.318 322.968C345.224 322.874 345.171 322.747 345.171 322.614V281.414H294.961C294.829 281.414 294.702 281.362 294.608 281.268C294.514 281.174 294.461 281.047 294.461 280.914V256.184C294.446 256.118 294.446 256.05 294.461 255.984L338.721 152.714C338.761 152.626 338.826 152.55 338.908 152.497C338.989 152.444 339.084 152.415 339.181 152.414H372.921C373.054 152.414 373.181 152.467 373.275 152.561C373.369 152.655 373.421 152.782 373.421 152.914V257.354H390.311C390.444 257.354 390.571 257.407 390.665 257.501C390.759 257.595 390.811 257.722 390.811 257.854V280.914C390.811 281.047 390.759 281.174 390.665 281.268C390.571 281.362 390.444 281.414 390.311 281.414H373.421V322.614C373.421 322.747 373.369 322.874 373.275 322.968C373.181 323.062 373.054 323.114 372.921 323.114ZM346.171 322.114H372.421V280.914C372.421 280.782 372.474 280.655 372.568 280.561C372.662 280.467 372.789 280.414 372.921 280.414H389.811V258.354H372.921C372.789 258.354 372.662 258.302 372.568 258.208C372.474 258.114 372.421 257.987 372.421 257.854V153.364H339.541L295.461 256.284V280.414H345.671C345.804 280.414 345.931 280.467 346.025 280.561C346.119 280.655 346.171 280.782 346.171 280.914V322.114ZM345.671 258.354H319.271C319.191 258.357 319.111 258.34 319.039 258.303C318.967 258.266 318.906 258.212 318.861 258.144C318.813 258.081 318.783 258.006 318.772 257.927C318.762 257.848 318.772 257.768 318.801 257.694L345.201 183.924C345.242 183.813 345.32 183.719 345.422 183.659C345.524 183.598 345.644 183.576 345.761 183.594C345.877 183.613 345.982 183.673 346.057 183.763C346.132 183.853 346.173 183.967 346.171 184.084V257.854C346.171 257.987 346.119 258.114 346.025 258.208C345.931 258.302 345.804 258.354 345.671 258.354ZM319.981 257.354H345.171V186.964L319.981 257.354Z" fill="#263238"/>
<path d="M140.771 322.615V280.915H90.0513V256.185L134.271 152.865H168.021V257.865H185.411V280.915H168.021V322.615H140.771ZM114.361 257.855H140.771V184.085L114.361 257.855Z" fill="white"/>
<path d="M168.021 323.114H140.771C140.639 323.114 140.511 323.062 140.418 322.968C140.324 322.874 140.271 322.747 140.271 322.614V281.414H90.0512C89.9194 281.412 89.7937 281.358 89.7005 281.265C89.6073 281.172 89.5538 281.046 89.5512 280.914V256.184C89.5409 256.118 89.5409 256.051 89.5512 255.984L133.811 152.714C133.851 152.626 133.916 152.55 133.997 152.497C134.079 152.444 134.174 152.415 134.271 152.414H168.021C168.154 152.414 168.281 152.467 168.375 152.561C168.469 152.655 168.521 152.782 168.521 152.914V257.354H185.411C185.544 257.354 185.671 257.407 185.765 257.501C185.859 257.595 185.911 257.722 185.911 257.854V280.914C185.911 281.047 185.859 281.174 185.765 281.268C185.671 281.362 185.544 281.414 185.411 281.414H168.541V322.614C168.541 322.682 168.528 322.748 168.501 322.81C168.475 322.872 168.436 322.928 168.388 322.975C168.339 323.022 168.282 323.058 168.219 323.082C168.156 323.106 168.089 323.117 168.021 323.114ZM141.271 322.114H167.541V280.914C167.541 280.782 167.594 280.655 167.688 280.561C167.781 280.467 167.909 280.414 168.041 280.414H184.931V258.354H168.021C167.889 258.354 167.761 258.302 167.668 258.208C167.574 258.114 167.521 257.987 167.521 257.854V153.364H134.601L90.5412 256.284V280.414H140.761C140.894 280.414 141.021 280.467 141.115 280.561C141.209 280.655 141.261 280.782 141.261 280.914L141.271 322.114ZM140.771 258.354H114.361C114.282 258.357 114.204 258.339 114.134 258.302C114.064 258.265 114.004 258.211 113.961 258.144C113.914 258.081 113.883 258.006 113.871 257.928C113.859 257.85 113.866 257.769 113.891 257.694L140.301 183.924C140.342 183.813 140.42 183.719 140.522 183.659C140.624 183.598 140.744 183.576 140.861 183.594C140.977 183.613 141.082 183.673 141.157 183.763C141.232 183.853 141.273 183.967 141.271 184.084V257.854C141.271 257.987 141.219 258.114 141.125 258.208C141.031 258.302 140.904 258.354 140.771 258.354ZM115.071 257.354H140.271V186.964L115.071 257.354Z" fill="#263238"/>
<path d="M244.931 325.134C235.011 325.134 226.801 323.038 220.301 318.844C213.792 314.635 208.684 308.58 205.631 301.454C202.351 294.041 200.711 285.518 200.711 275.884V200.644C200.711 190.724 202.281 182.028 205.421 174.554C208.329 167.371 213.382 161.26 219.891 157.054C226.385 152.868 234.718 150.771 244.891 150.764C255.065 150.758 263.398 152.854 269.891 157.054C276.4 161.26 281.454 167.371 284.361 174.554C287.501 182.028 289.071 190.724 289.071 200.644V275.884C289.071 285.524 287.431 294.048 284.151 301.454C281.115 308.572 276.029 314.626 269.541 318.844C263.055 323.038 254.851 325.134 244.931 325.134ZM244.931 300.194C249.265 300.194 252.478 298.861 254.571 296.194C256.739 293.374 258.179 290.063 258.761 286.554C259.451 282.891 259.802 279.172 259.811 275.444V201.044C259.814 197.149 259.5 193.259 258.871 189.414C258.367 185.867 256.959 182.51 254.781 179.664C252.681 176.998 249.398 175.664 244.931 175.664C240.465 175.664 237.181 176.998 235.081 179.664C232.904 182.51 231.496 185.867 230.991 189.414C230.363 193.259 230.048 197.149 230.051 201.044V275.444C230.06 279.177 230.446 282.899 231.201 286.554C231.853 290.062 233.326 293.366 235.501 296.194C237.601 298.861 240.745 300.194 244.931 300.194Z" fill="white"/>
<path d="M244.932 325.634C234.932 325.634 226.582 323.494 220.032 319.264C213.445 314.997 208.276 308.867 205.182 301.654C201.882 294.224 200.182 285.554 200.182 275.884V200.644C200.182 190.704 201.782 181.864 204.932 174.354C207.886 167.087 212.999 160.902 219.582 156.634C226.132 152.404 234.652 150.264 244.902 150.264C255.152 150.264 263.672 152.404 270.222 156.634C276.804 160.902 281.918 167.087 284.872 174.354C288.022 181.864 289.622 190.704 289.622 200.644V275.884C289.774 284.729 288.071 293.508 284.622 301.654C281.53 308.868 276.36 314.999 269.772 319.264C263.282 323.494 254.902 325.634 244.932 325.634ZM244.932 151.264C234.932 151.264 226.542 153.354 220.162 157.474C213.751 161.624 208.77 167.642 205.892 174.714C202.782 182.094 201.212 190.804 201.212 200.614V275.854C201.212 285.384 202.852 293.914 206.092 301.214C209.094 308.258 214.124 314.249 220.542 318.424C226.922 322.544 235.122 324.634 244.892 324.634C254.662 324.634 262.892 322.544 269.242 318.424C275.667 314.26 280.711 308.28 283.732 301.244C287.111 293.225 288.774 284.586 288.612 275.884V200.644C288.612 190.834 287.042 182.124 283.942 174.744C281.061 167.662 276.077 161.634 269.662 157.474C263.322 153.354 254.982 151.264 244.932 151.264ZM244.932 300.694C240.602 300.694 237.292 299.294 235.112 296.524C232.889 293.634 231.381 290.259 230.712 286.674C229.949 282.986 229.557 279.231 229.542 275.464V201.064C229.559 197.14 229.893 193.224 230.542 189.354C231.059 185.717 232.502 182.274 234.732 179.354C236.922 176.584 240.362 175.184 244.972 175.184C249.582 175.184 253.032 176.584 255.212 179.354C257.441 182.274 258.884 185.717 259.402 189.354C260.05 193.224 260.385 197.14 260.402 201.064V275.464C260.389 279.222 260.034 282.971 259.342 286.664C258.744 290.254 257.271 293.64 255.052 296.524C252.782 299.294 249.402 300.714 244.932 300.714V300.694ZM244.932 176.204C240.642 176.204 237.462 177.484 235.472 179.994C233.347 182.774 231.97 186.052 231.472 189.514C230.848 193.333 230.534 197.195 230.532 201.064V275.464C230.542 279.16 230.924 282.845 231.672 286.464C232.31 289.894 233.749 293.125 235.872 295.894C237.872 298.404 240.872 299.684 244.872 299.684C248.872 299.684 252.132 298.404 254.122 295.894C256.236 293.137 257.641 289.902 258.212 286.474C258.878 282.846 259.213 279.164 259.212 275.474V201.074C259.215 197.205 258.9 193.342 258.272 189.524C257.773 186.062 256.396 182.784 254.272 180.004C252.402 177.484 249.222 176.204 244.932 176.204Z" fill="#263238"/>
<path d="M358.311 322.615V280.915H307.591V256.185L351.811 152.865H385.541V257.865H402.931V280.915H385.541V322.615H358.311ZM331.901 257.855H358.311V184.085L331.901 257.855Z" fill="white"/>
<path d="M385.541 323.114H358.311C358.179 323.114 358.051 323.062 357.958 322.968C357.864 322.874 357.811 322.747 357.811 322.614V281.414H307.591C307.459 281.412 307.334 281.358 307.241 281.265C307.147 281.172 307.094 281.046 307.091 280.914V256.184C307.081 256.118 307.081 256.051 307.091 255.984L351.351 152.714C351.391 152.626 351.456 152.55 351.537 152.497C351.619 152.444 351.714 152.415 351.811 152.414H385.541C385.674 152.414 385.801 152.467 385.895 152.561C385.989 152.655 386.041 152.782 386.041 152.914V257.354H402.931C403.064 257.354 403.191 257.407 403.285 257.501C403.379 257.595 403.431 257.722 403.431 257.854V280.914C403.431 281.047 403.379 281.174 403.285 281.268C403.191 281.362 403.064 281.414 402.931 281.414H386.061V322.614C386.061 322.682 386.048 322.748 386.021 322.81C385.995 322.872 385.956 322.928 385.908 322.975C385.859 323.022 385.802 323.058 385.739 323.082C385.676 323.106 385.609 323.117 385.541 323.114ZM358.791 322.114H385.041V280.914C385.041 280.782 385.094 280.655 385.188 280.561C385.281 280.467 385.409 280.414 385.541 280.414H402.431V258.354H385.541C385.409 258.354 385.281 258.302 385.188 258.208C385.094 258.114 385.041 257.987 385.041 257.854V153.364H352.141L308.091 256.284V280.414H358.311C358.444 280.414 358.571 280.467 358.665 280.561C358.759 280.655 358.811 280.782 358.811 280.914L358.791 322.114ZM358.291 258.354H331.901C331.821 258.356 331.742 258.337 331.67 258.3C331.599 258.264 331.537 258.21 331.491 258.144C331.447 258.079 331.419 258.004 331.408 257.926C331.398 257.848 331.406 257.769 331.431 257.694L357.841 183.924C357.88 183.812 357.958 183.716 358.06 183.656C358.163 183.595 358.284 183.574 358.401 183.594C358.517 183.613 358.622 183.673 358.697 183.763C358.772 183.853 358.813 183.967 358.811 184.084V257.854C358.811 257.987 358.759 258.114 358.665 258.208C358.571 258.302 358.444 258.354 358.311 258.354H358.291ZM332.591 257.354H357.791V186.964L332.591 257.354Z" fill="#263238"/>
<path d="M133.061 144.654C131.099 144.749 129.15 144.296 127.431 143.344C126.035 142.457 124.978 141.125 124.431 139.564C123.795 137.681 123.493 135.701 123.541 133.714V121.284C123.495 119.323 123.8 117.369 124.441 115.514C124.994 113.985 126.052 112.69 127.441 111.844C129.209 111.001 131.143 110.564 133.101 110.564C135.059 110.564 136.993 111.001 138.761 111.844C140.144 112.696 141.201 113.989 141.761 115.514C142.414 117.366 142.726 119.321 142.681 121.284V133.774C142.722 135.737 142.41 137.691 141.761 139.544C141.201 141.099 140.148 142.427 138.761 143.324C137.026 144.301 135.049 144.763 133.061 144.654ZM133.061 140.184C133.864 140.25 134.662 140.015 135.301 139.524C135.821 139.045 136.172 138.41 136.301 137.714C136.475 136.893 136.559 136.054 136.551 135.214V119.894C136.562 119.051 136.478 118.209 136.301 117.384C136.17 116.71 135.818 116.097 135.301 115.644C134.657 115.165 133.861 114.937 133.061 115.004C132.281 114.948 131.507 115.175 130.881 115.644C130.362 116.096 130.01 116.709 129.881 117.384C129.704 118.209 129.62 119.051 129.631 119.894V135.214C129.627 136.053 129.704 136.89 129.861 137.714C129.981 138.413 130.333 139.051 130.861 139.524C131.489 140.006 132.272 140.24 133.061 140.184Z" fill="#263238"/>
<path d="M156.181 144.654C154.222 144.75 152.276 144.296 150.561 143.344C149.16 142.463 148.101 141.129 147.561 139.564C146.915 137.69 146.607 135.716 146.651 133.734V121.284C146.603 119.322 146.911 117.367 147.561 115.514C148.104 113.979 149.164 112.682 150.561 111.844C152.327 111.002 154.259 110.564 156.216 110.564C158.173 110.564 160.105 111.002 161.871 111.844C163.254 112.696 164.311 113.989 164.871 115.514C165.524 117.366 165.835 119.321 165.791 121.284V133.774C165.831 135.737 165.52 137.691 164.871 139.544C164.311 141.099 163.257 142.427 161.871 143.324C160.139 144.3 158.165 144.762 156.181 144.654ZM156.181 140.184C156.984 140.25 157.782 140.015 158.421 139.524C158.937 139.042 159.287 138.408 159.421 137.714C159.586 136.891 159.667 136.054 159.661 135.214V119.894C159.669 119.052 159.589 118.21 159.421 117.384C159.285 116.711 158.934 116.101 158.421 115.644C157.777 115.165 156.981 114.937 156.181 115.004C155.404 114.946 154.632 115.174 154.011 115.644C153.488 116.092 153.134 116.707 153.011 117.384C152.839 118.21 152.755 119.051 152.761 119.894V135.214C152.757 136.053 152.834 136.89 152.991 137.714C153.111 138.413 153.463 139.051 153.991 139.524C154.618 140.001 155.395 140.235 156.181 140.184Z" fill="#263238"/>
<path d="M170.271 144.204V110.934H180.041C181.734 110.861 183.416 111.245 184.911 112.044C186.159 112.788 187.126 113.924 187.661 115.274C188.289 116.903 188.588 118.64 188.541 120.384C188.622 122.196 188.243 123.998 187.441 125.624C186.75 126.9 185.661 127.914 184.341 128.514C182.853 129.146 181.247 129.453 179.631 129.414H176.351V144.204H170.271ZM176.351 125.144H178.651C179.529 125.19 180.406 125.029 181.211 124.674C181.516 124.52 181.787 124.306 182.006 124.045C182.226 123.784 182.391 123.481 182.491 123.154C182.752 122.241 182.87 121.293 182.841 120.344C182.863 119.357 182.772 118.371 182.571 117.404C182.505 117.063 182.368 116.739 182.17 116.454C181.972 116.168 181.717 115.926 181.421 115.744C180.561 115.325 179.606 115.139 178.651 115.204H176.351V125.144Z" fill="#263238"/>
<path d="M200.131 144.654C198.39 144.714 196.665 144.311 195.131 143.485C193.79 142.691 192.739 141.489 192.131 140.054C191.388 138.301 190.998 136.419 190.981 134.514L196.191 133.514C196.226 134.665 196.387 135.809 196.671 136.925C196.855 137.778 197.266 138.566 197.861 139.205C198.14 139.474 198.471 139.685 198.833 139.822C199.196 139.96 199.583 140.022 199.971 140.004C200.367 140.046 200.767 139.987 201.134 139.833C201.501 139.679 201.823 139.436 202.071 139.125C202.501 138.459 202.714 137.676 202.681 136.884C202.727 135.619 202.377 134.372 201.681 133.315C200.925 132.275 200.041 131.334 199.051 130.514L194.861 126.824C193.732 125.869 192.781 124.721 192.051 123.434C191.327 122.006 190.983 120.415 191.051 118.815C190.979 117.696 191.146 116.574 191.543 115.526C191.94 114.477 192.556 113.525 193.351 112.735C195.09 111.238 197.34 110.471 199.631 110.595C200.968 110.551 202.298 110.797 203.531 111.315C204.518 111.757 205.376 112.446 206.021 113.315C206.645 114.193 207.109 115.175 207.391 116.214C207.701 117.335 207.896 118.484 207.971 119.644L202.791 120.544C202.751 119.607 202.637 118.674 202.451 117.754C202.305 117.03 201.959 116.361 201.451 115.824C201.184 115.576 200.868 115.386 200.524 115.265C200.18 115.145 199.815 115.097 199.451 115.125C199.06 115.102 198.669 115.17 198.309 115.323C197.948 115.475 197.627 115.709 197.371 116.004C196.888 116.634 196.637 117.411 196.661 118.205C196.621 119.175 196.861 120.136 197.351 120.974C197.909 121.812 198.582 122.566 199.351 123.214L203.491 126.875C204.862 128.02 206.049 129.369 207.011 130.875C208.018 132.569 208.521 134.515 208.461 136.485C208.5 137.957 208.155 139.415 207.461 140.714C206.778 141.933 205.766 142.934 204.541 143.604C203.188 144.334 201.668 144.697 200.131 144.654Z" fill="#263238"/>
<path d="M211.171 144.204V138.784H216.601V144.204H211.171ZM212.901 136.404L211.221 110.974H216.801L214.801 136.404H212.901Z" fill="#263238"/>
</svg>
